<svg xmlns="http://www.w3.org/2000/svg" width="248.683" height="263.907" viewBox="0 0 248.683 263.907">
  <g id="cubes_deco" transform="translate(0 263.907) rotate(-90)" opacity="0.35">
    <path id="Tracé_41" data-name="Tracé 41" d="M157.33,182.706H25.376A25.4,25.4,0,0,1,0,157.33V25.376A25.4,25.4,0,0,1,25.376,0H157.33a25.4,25.4,0,0,1,25.375,25.376V157.33A25.4,25.4,0,0,1,157.33,182.706ZM25.376,10.151A15.241,15.241,0,0,0,10.151,25.376V157.33a15.242,15.242,0,0,0,15.226,15.225H157.33a15.242,15.242,0,0,0,15.225-15.225V25.376A15.242,15.242,0,0,0,157.33,10.15Z" transform="translate(81.202 65.977)" fill="#8cc63f"/>
    <path id="Tracé_43" data-name="Tracé 43" d="M157.33,182.706H25.376A25.4,25.4,0,0,1,0,157.33V25.376A25.4,25.4,0,0,1,25.376,0H157.33a25.4,25.4,0,0,1,25.375,25.376V157.33A25.4,25.4,0,0,1,157.33,182.706ZM25.376,10.15A15.243,15.243,0,0,0,10.15,25.376V157.33a15.243,15.243,0,0,0,15.227,15.226H157.33a15.243,15.243,0,0,0,15.226-15.226V25.376A15.243,15.243,0,0,0,157.33,10.15Z" fill="#8cc63f"/>
  </g>
</svg>
