<svg xmlns="http://www.w3.org/2000/svg" width="25.102" height="25.148" viewBox="0 0 25.102 25.148">
  <path id="Icon_feather-phone" data-name="Icon feather-phone" d="M23.946,27.148c-.1,0-.2,0-.3-.014l-.018,0a24.1,24.1,0,0,1-10.457-3.719,23.806,23.806,0,0,1-7.27-7.27A24.1,24.1,0,0,1,2.183,5.638l0-.016A3.323,3.323,0,0,1,5.488,2H9a3.338,3.338,0,0,1,3.29,2.858v.009a13.934,13.934,0,0,0,.759,3.045,3.332,3.332,0,0,1-.749,3.5l0,0-.924.924A17.6,17.6,0,0,0,16.925,17.9l.924-.924,0,0a3.323,3.323,0,0,1,3.506-.748,13.93,13.93,0,0,0,3.043.758h.009a3.323,3.323,0,0,1,2.858,3.359v3.473a3.323,3.323,0,0,1-3.323,3.333Zm-.111-2a1.323,1.323,0,0,0,1.434-1.324V20.33q0-.012,0-.025a1.323,1.323,0,0,0-1.134-1.342,15.937,15.937,0,0,1-3.478-.867,1.323,1.323,0,0,0-1.4.3l-1.473,1.473a1,1,0,0,1-1.2.162,19.594,19.594,0,0,1-7.344-7.344,1,1,0,0,1,.162-1.2l1.473-1.473a1.327,1.327,0,0,0,.3-1.394,15.942,15.942,0,0,1-.868-3.48A1.329,1.329,0,0,0,9,4H5.489A1.323,1.323,0,0,0,4.173,5.435a22.093,22.093,0,0,0,3.41,9.624l0,.007a21.792,21.792,0,0,0,6.662,6.662l.008,0A22.094,22.094,0,0,0,23.835,25.143Z" transform="translate(-2.168 -2)" fill="#36b4e8"/>
</svg>
