<svg xmlns="http://www.w3.org/2000/svg" width="26.184" height="21.347" viewBox="0 0 26.184 21.347">
  <g id="Icon_feather-mail" data-name="Icon feather-mail" transform="translate(-2 -5)">
    <path id="Tracé_271" data-name="Tracé 271" d="M5.418,5H24.765a3.422,3.422,0,0,1,3.418,3.418v14.51a3.422,3.422,0,0,1-3.418,3.418H5.418A3.422,3.422,0,0,1,2,22.929V8.418A3.422,3.422,0,0,1,5.418,5ZM24.765,24.347a1.42,1.42,0,0,0,1.418-1.418V8.418A1.42,1.42,0,0,0,24.765,7H5.418A1.42,1.42,0,0,0,4,8.418v14.51a1.42,1.42,0,0,0,1.418,1.418Z" fill="#36b4e8"/>
    <path id="Tracé_272" data-name="Tracé 272" d="M15.092,18.464a1,1,0,0,1-.573-.181L2.427,9.819A1,1,0,0,1,3.573,8.181l11.518,8.063L26.61,8.181a1,1,0,0,1,1.147,1.638L15.665,18.284A1,1,0,0,1,15.092,18.464Z" transform="translate(0 -0.582)" fill="#36b4e8"/>
  </g>
</svg>
