<svg xmlns="http://www.w3.org/2000/svg" width="28.015" height="28.015" viewBox="0 0 28.015 28.015">
  <path id="Icon_vert_appstore" d="M25.013,2.25H3a3,3,0,0,0-3,3V27.263a3,3,0,0,0,3,3H25.013a3,3,0,0,0,3-3V5.252A3,3,0,0,0,25.013,2.25ZM7.942,24.293a1.25,1.25,0,1,1-2.164-1.251L6.672,21.5a2.146,2.146,0,0,1,2.476.713Zm8.686-3.371H5.253a1.251,1.251,0,1,1,0-2.5H8.442l4.09-7.079L11.25,9.129a1.25,1.25,0,1,1,2.164-1.251l.557.963.557-.963A1.25,1.25,0,1,1,16.69,9.129l-5.365,9.292h3.883a1.715,1.715,0,0,1,1.42,2.5Zm6.135,0H20.949l1.226,2.12a1.25,1.25,0,0,1-2.164,1.251q-3.086-5.337-4.627-8.011a3.459,3.459,0,0,1,.444-4.24q1.229,2.129,3.683,6.378h3.252a1.251,1.251,0,1,1,0,2.5Z" transform="translate(0 -2.25)" fill="#8cc63f"/>
</svg>
