<svg xmlns="http://www.w3.org/2000/svg" width="23.224" height="23.148" viewBox="0 0 23.224 23.148">
  <path id="Icon_simple-linkedin" data-name="Icon simple-linkedin" d="M19.786,19.726H16.346V14.354c0-1.281-.026-2.929-1.792-2.929-1.793,0-2.067,1.394-2.067,2.835v5.466H9.048V8.68h3.3v1.506H12.4A3.626,3.626,0,0,1,15.658,8.4c3.485,0,4.129,2.286,4.129,5.261v6.063ZM5.164,7.169a1.991,1.991,0,1,1,2-1.992A1.992,1.992,0,0,1,5.164,7.169ZM6.889,19.726H3.44V8.68H6.889ZM21.506,0H1.714A1.691,1.691,0,0,0,0,1.668V21.48a1.69,1.69,0,0,0,1.714,1.668H21.5a1.7,1.7,0,0,0,1.72-1.668V1.668A1.7,1.7,0,0,0,21.5,0Z" fill="#36b4e8"/>
</svg>
