<svg xmlns="http://www.w3.org/2000/svg" width="30.372" height="30.438" viewBox="0 0 30.372 30.438">
  <path id="Icon_vert_phone" d="M28.524,32.435a2.605,2.605,0,0,1-.363-.017h-.022a29.167,29.167,0,0,1-12.655-4.5,28.811,28.811,0,0,1-8.8-8.8A29.166,29.166,0,0,1,2.186,6.4V6.383A4.022,4.022,0,0,1,6.186,2h4.25a4.04,4.04,0,0,1,3.982,3.459V5.47a16.863,16.863,0,0,0,.919,3.685,4.032,4.032,0,0,1-.906,4.236h0l-1.118,1.118a21.3,21.3,0,0,0,6.716,6.734l1.118-1.118h0a4.022,4.022,0,0,1,4.243-.905,16.859,16.859,0,0,0,3.683.917h.011A4.022,4.022,0,0,1,32.541,24.2v4.2a4.022,4.022,0,0,1-4.022,4.034Zm-.134-2.42a1.6,1.6,0,0,0,1.735-1.6V24.153a1.6,1.6,0,0,0-1.372-1.624,19.287,19.287,0,0,1-4.209-1.049,1.6,1.6,0,0,0-1.694.363l-1.783,1.783a1.21,1.21,0,0,1-1.452.2,23.713,23.713,0,0,1-8.888-8.888,1.21,1.21,0,0,1,.2-1.452L12.705,11.7a1.606,1.606,0,0,0,.363-1.687A19.293,19.293,0,0,1,12.018,5.8a1.608,1.608,0,0,0-1.582-1.38H6.187A1.6,1.6,0,0,0,4.594,6.157,26.737,26.737,0,0,0,8.721,17.8v.008a26.373,26.373,0,0,0,8.063,8.063h.01a26.739,26.739,0,0,0,11.6,4.133Z" transform="translate(-2.17 -2)" fill="#8cc63f"/>
</svg>
