<svg xmlns="http://www.w3.org/2000/svg" width="28.102" height="28.015" viewBox="0 0 28.102 28.015">
  <path id="Icon_vert_linkedin" d="M23.946,23.873H19.782v-6.5c0-1.55-.031-3.545-2.169-3.545-2.17,0-2.5,1.687-2.5,3.431v6.615H10.95V10.5h3.994v1.823h.063a4.388,4.388,0,0,1,3.943-2.161c4.218,0,5,2.767,5,6.367V23.87ZM6.25,8.676a2.411,2.411,0,1,1,1.711-.7,2.41,2.41,0,0,1-1.711.7Zm2.088,15.2H4.163V10.5H8.337ZM26.027,0H2.074A2.046,2.046,0,0,0,0,2.019V26a2.045,2.045,0,0,0,2.074,2.019H26.02A2.057,2.057,0,0,0,28.1,26V2.019A2.057,2.057,0,0,0,26.02,0Z" transform="translate(0 0)" fill="#8cc63f"/>
</svg>
