<svg id="Icon_vert_mail" xmlns="http://www.w3.org/2000/svg" width="31.688" height="25.833" viewBox="0 0 31.688 25.833">
  <path id="Tracé_271" data-name="Tracé 271" d="M6.137,5H29.551a4.141,4.141,0,0,1,4.137,4.137V26.7a4.141,4.141,0,0,1-4.137,4.137H6.137A4.141,4.141,0,0,1,2,26.7V9.137A4.141,4.141,0,0,1,6.137,5ZM29.551,28.414A1.719,1.719,0,0,0,31.267,26.7V9.137A1.719,1.719,0,0,0,29.551,7.42H6.137A1.719,1.719,0,0,0,4.42,9.137V26.7a1.719,1.719,0,0,0,1.716,1.716Z" transform="translate(-2 -5)" fill="#8cc63f"/>
  <path id="Tracé_272" data-name="Tracé 272" d="M17.839,20.664a1.21,1.21,0,0,1-.693-.219L2.512,10.2A1.21,1.21,0,0,1,3.9,8.219l13.939,9.758L31.779,8.219A1.21,1.21,0,1,1,33.167,10.2L18.533,20.446A1.21,1.21,0,0,1,17.839,20.664Z" transform="translate(-1.995 -5.074)" fill="#8cc63f"/>
</svg>
