<svg id="illustration_select_style" xmlns="http://www.w3.org/2000/svg" width="183.305" height="210.297" viewBox="0 0 183.305 210.297">
  <path id="Tracé_1" data-name="Tracé 1" d="M908.476,737.077v-20.84S916.6,731.012,908.476,737.077Z" transform="translate(-756.003 -534.39)" fill="#f1f1f1"/>
  <path id="Tracé_2" data-name="Tracé 2" d="M872.28,753.736l-15.352-14.093S873.3,743.652,872.28,753.736Z" transform="translate(-719.305 -551.053)" fill="#f1f1f1"/>
  <path id="Tracé_3" data-name="Tracé 3" d="M282.039,737.077v-20.84S273.917,731.012,282.039,737.077Z" transform="translate(-251.37 -534.39)" fill="#f1f1f1"/>
  <path id="Tracé_4" data-name="Tracé 4" d="M289.1,753.736l15.352-14.093S288.08,743.651,289.1,753.736Z" transform="translate(-258.937 -551.053)" fill="#f1f1f1"/>
  <path id="Tracé_5" data-name="Tracé 5" d="M525.721,133.129h-1.113V102.648a17.642,17.642,0,0,0-17.642-17.642h-64.58a17.642,17.642,0,0,0-17.642,17.642V269.872a17.642,17.642,0,0,0,17.642,17.642h64.58a17.642,17.642,0,0,0,17.642-17.642V154.827h1.113Z" transform="translate(-383.58 -85.006)"/>
  <path id="Tracé_6" data-name="Tracé 6" d="M519.708,100.938h-8.43a6.259,6.259,0,0,1-5.8,8.623h-37a6.259,6.259,0,0,1-5.8-8.623h-7.873a13.175,13.175,0,0,0-13.175,13.175V281.092a13.175,13.175,0,0,0,13.175,13.175h64.891a13.175,13.175,0,0,0,13.175-13.175h0V114.113a13.175,13.175,0,0,0-13.175-13.175Z" transform="translate(-395.61 -96.348)" fill="#fff"/>
  <path id="Tracé_7" data-name="Tracé 7" d="M522.915,690.652h-61.64c-7.083,0-12.845-5.143-12.845-11.465v-8.3c0-5.038,4.589-9.138,10.229-9.138h66.87c5.64,0,10.229,4.1,10.229,9.138v8.3C535.759,685.509,530,690.652,522.915,690.652Z" transform="translate(-400.442 -495.6)" fill="#e5e5e5"/>
  <path id="Tracé_8" data-name="Tracé 8" d="M479.236,239.281H465.486a.93.93,0,0,1-.929-.929V224.6a.93.93,0,0,1,.929-.929h13.749a.93.93,0,0,1,.929.929v13.749a.93.93,0,0,1-.929.929Z" transform="translate(-404.1 -183.725)" fill="#8cc63f"/>
  <path id="Tracé_9" data-name="Tracé 9" d="M551.472,239.281h-13.75a.93.93,0,0,1-.929-.929V224.6a.93.93,0,0,1,.929-.929h13.75a.93.93,0,0,1,.929.929v13.749A.93.93,0,0,1,551.472,239.281Z" transform="translate(-460.742 -183.725)" fill="#e5e5e5"/>
  <path id="Tracé_10" data-name="Tracé 10" d="M623.708,239.281H609.959a.93.93,0,0,1-.929-.929V224.6a.93.93,0,0,1,.929-.929h13.749a.93.93,0,0,1,.929.929v13.749A.93.93,0,0,1,623.708,239.281Z" transform="translate(-517.384 -183.725)" fill="#e5e5e5"/>
  <path id="Tracé_11" data-name="Tracé 11" d="M695.944,239.281H682.2a.93.93,0,0,1-.929-.929V224.6a.93.93,0,0,1,.929-.929h13.75a.93.93,0,0,1,.929.929v13.749A.93.93,0,0,1,695.944,239.281Z" transform="translate(-574.026 -183.725)" fill="#e5e5e5"/>
  <path id="Tracé_12" data-name="Tracé 12" d="M479.065,327.641H465.316a.93.93,0,0,1-.929-.929V312.963a.93.93,0,0,1,.929-.929h13.749a.93.93,0,0,1,.929.929v13.749A.93.93,0,0,1,479.065,327.641Z" transform="translate(-403.966 -246.631)" fill="#e5e5e5"/>
  <path id="Tracé_13" data-name="Tracé 13" d="M551.3,327.641H537.552a.93.93,0,0,1-.929-.929V312.963a.93.93,0,0,1,.929-.929H551.3a.93.93,0,0,1,.929.929v13.749A.93.93,0,0,1,551.3,327.641Z" transform="translate(-460.608 -246.631)" fill="#e5e5e5"/>
  <path id="Tracé_14" data-name="Tracé 14" d="M623.537,327.641H609.788a.93.93,0,0,1-.929-.929V312.963a.93.93,0,0,1,.929-.929h13.749a.93.93,0,0,1,.929.929v13.749A.93.93,0,0,1,623.537,327.641Z" transform="translate(-517.25 -246.631)" fill="#8cc63f"/>
  <path id="Tracé_15" data-name="Tracé 15" d="M695.773,327.641h-13.75a.93.93,0,0,1-.929-.929V312.963a.93.93,0,0,1,.929-.929h13.75a.93.93,0,0,1,.929.929v13.749A.93.93,0,0,1,695.773,327.641Z" transform="translate(-573.892 -246.631)" fill="#8cc63f"/>
  <path id="Tracé_16" data-name="Tracé 16" d="M478.894,416h-13.75a.93.93,0,0,1-.929-.929V401.323a.93.93,0,0,1,.929-.929h13.75a.93.93,0,0,1,.929.929v13.749A.93.93,0,0,1,478.894,416Z" transform="translate(-403.831 -309.536)" fill="#e5e5e5"/>
  <path id="Tracé_17" data-name="Tracé 17" d="M551.13,416H537.381a.93.93,0,0,1-.929-.929V401.323a.93.93,0,0,1,.929-.929h13.749a.93.93,0,0,1,.929.929v13.749A.93.93,0,0,1,551.13,416Z" transform="translate(-460.474 -309.536)" fill="#e5e5e5"/>
  <path id="Tracé_18" data-name="Tracé 18" d="M623.367,416H609.617a.93.93,0,0,1-.929-.929V401.323a.93.93,0,0,1,.929-.929h13.749a.93.93,0,0,1,.929.929v13.749a.93.93,0,0,1-.929.929Z" transform="translate(-517.116 -309.536)" fill="#e5e5e5"/>
  <path id="Tracé_19" data-name="Tracé 19" d="M695.6,416H681.854a.93.93,0,0,1-.929-.929V401.323a.93.93,0,0,1,.929-.929H695.6a.93.93,0,0,1,.929.929v13.749a.93.93,0,0,1-.929.929Z" transform="translate(-573.759 -309.536)" fill="#e5e5e5"/>
  <path id="Tracé_20" data-name="Tracé 20" d="M478.723,504.361H464.974a.93.93,0,0,1-.929-.929V489.683a.93.93,0,0,1,.929-.929h13.749a.93.93,0,0,1,.929.929v13.749A.93.93,0,0,1,478.723,504.361Z" transform="translate(-403.698 -372.441)" fill="#e5e5e5"/>
  <path id="Tracé_21" data-name="Tracé 21" d="M550.96,504.361H537.21a.93.93,0,0,1-.929-.929V489.683a.93.93,0,0,1,.929-.929h13.749a.93.93,0,0,1,.929.929v13.749A.93.93,0,0,1,550.96,504.361Z" transform="translate(-460.34 -372.441)" fill="#e5e5e5"/>
  <path id="Tracé_22" data-name="Tracé 22" d="M623.2,504.361H609.447a.93.93,0,0,1-.929-.929v-13.75a.93.93,0,0,1,.929-.929H623.2a.93.93,0,0,1,.929.929v13.75a.93.93,0,0,1-.929.929Z" transform="translate(-516.982 -372.441)" fill="#e5e5e5"/>
  <path id="Tracé_23" data-name="Tracé 23" d="M695.432,504.361h-13.75a.93.93,0,0,1-.929-.929V489.683a.93.93,0,0,1,.929-.929h13.75a.93.93,0,0,1,.929.929v13.749A.93.93,0,0,1,695.432,504.361Z" transform="translate(-573.624 -372.441)" fill="#e5e5e5"/>
  <path id="Tracé_24" data-name="Tracé 24" d="M479.235,701.721H465.486a.93.93,0,0,1-.929-.929v-13.75a.93.93,0,0,1,.929-.929h13.749a.93.93,0,0,1,.929.929v13.75A.93.93,0,0,1,479.235,701.721Z" transform="translate(-404.1 -512.945)" fill="#fff"/>
  <path id="Tracé_25" data-name="Tracé 25" d="M551.472,701.721h-13.75a.93.93,0,0,1-.929-.929V687.043a.93.93,0,0,1,.929-.929h13.75a.93.93,0,0,1,.929.929v13.749A.93.93,0,0,1,551.472,701.721Z" transform="translate(-460.742 -512.945)" fill="#fff"/>
  <path id="Tracé_26" data-name="Tracé 26" d="M623.708,701.721H609.959a.93.93,0,0,1-.929-.929V687.043a.93.93,0,0,1,.929-.929h13.749a.93.93,0,0,1,.929.929v13.749A.93.93,0,0,1,623.708,701.721Z" transform="translate(-517.384 -512.945)" fill="#fff"/>
  <path id="Tracé_27" data-name="Tracé 27" d="M695.944,701.721H682.2a.93.93,0,0,1-.929-.929v-13.75a.93.93,0,0,1,.929-.929h13.75a.93.93,0,0,1,.929.929v13.75A.93.93,0,0,1,695.944,701.721Z" transform="translate(-574.026 -512.945)" fill="#fff"/>
  <circle id="Ellipse_1" data-name="Ellipse 1" cx="1.858" cy="1.858" r="1.858" transform="translate(84.66 156.075)" fill="#e5e5e5"/>
  <circle id="Ellipse_2" data-name="Ellipse 2" cx="1.858" cy="1.858" r="1.858" transform="translate(89.757 156.075)" fill="#e5e5e5"/>
  <circle id="Ellipse_3" data-name="Ellipse 3" cx="1.858" cy="1.858" r="1.858" transform="translate(94.854 156.075)" fill="#e5e5e5"/>
  <path id="Tracé_28" data-name="Tracé 28" d="M367.584,787.581H184.721a.3.3,0,0,1,0-.576H367.584a.3.3,0,0,1,0,.576Z" transform="translate(-184.5 -584.771)" fill="#cbcbcb"/>
  <path id="Tracé_29" data-name="Tracé 29" d="M494.877,546.145a3.759,3.759,0,0,0-.507-5.742L498,527.546l-6.616,2.1-2.431,11.887a3.78,3.78,0,0,0,5.925,4.608Z" transform="translate(-422.227 -400.058)" fill="#ffb7b7"/>
  <path id="Tracé_31" data-name="Tracé 31" d="M342.1,684.44h3.532l1.68-13.623H342.1Z" transform="translate(-267.155 -477.566)" fill="#ffb7b7"/>
  <path id="Tracé_32" data-name="Tracé 32" d="M523.478,799.107h6.956a4.433,4.433,0,0,1,4.432,4.432v.144H523.478Z" transform="translate(-449.848 -593.387)"/>
  <path id="Tracé_33" data-name="Tracé 33" d="M394.382,680.668l3.51.394,3.188-13.351-5.18-.581Z" transform="translate(-308.154 -474.942)" fill="#ffb7b7"/>
  <path id="Tracé_34" data-name="Tracé 34" d="M574.96,794.8l6.912.775h0a4.433,4.433,0,0,1,3.911,4.9l-.016.143L574.45,799.35Z" transform="translate(-489.745 -590.322)"/>
  <path id="Tracé_35" data-name="Tracé 35" d="M509.341,536.789s-4.842,10.719-.566,17.682l2.547,54.208h5.849l5.674-43.789,10.083,12.964-6.143,30.257,7.154.4,9.936-30.658s-7.634-33.806-10.155-34.62l-1.657-7.728Z" transform="translate(-439.833 -405.724)"/>
  <path id="Tracé_36" data-name="Tracé 36" d="M505.617,572.262s-4.362,5.006,7.161,6.735,23.623-.864,23.911-4.321S505.617,572.262,505.617,572.262Z" transform="translate(-437.474 -431.786)" fill="#cbcbcb"/>
  <path id="Tracé_37" data-name="Tracé 37" d="M676.333,348.389a3.345,3.345,0,0,1-4.05,3.147l-4.356,6.281-4.463-1.716,6.276-8.784a3.363,3.363,0,0,1,6.593,1.071Z" transform="translate(-559.65 -270.016)" fill="#ffb7b7"/>
  <g id="veste" transform="translate(60.594 81.985)">
    <path id="Tracé_30" data-name="Tracé 30" d="M496.75,441.066a1.72,1.72,0,0,1-.359.03l-6.346-.127a1.682,1.682,0,0,1-1.63-1.928l6.438-43.5a5.333,5.333,0,0,1,5.26-4.528h0a5.3,5.3,0,0,1,5.137,6.576l-4.563,18.482L498.1,439.6a1.672,1.672,0,0,1-1.347,1.467Z" transform="translate(-488.397 -384.845)" fill="#072f00"/>
    <path id="Tracé_38" data-name="Tracé 38" d="M525.6,378.227l-6.158-2.786-7.891.564s-9.513,11.122-5.768,21.781l-2.3,37.163c14.692,4.033,21.371-3.531,31.977-.288l-3.276-41.3Z" transform="translate(-499.132 -373.757)" fill="#072f00"/>
    <path id="Tracé_39" data-name="Tracé 39" d="M565.976,376.772l4.116-2.706s5.717-.864,8,1.353c0,0,7.757.649,9.631,2.586l2.063.465,6.853-8.873,4.193,2.279-6.05,16.421-18.112.9Z" transform="translate(-543.627 -369.596)" fill="#072f00"/>
  </g>
  <circle id="Ellipse_4" data-name="Ellipse 4" cx="9.721" cy="9.721" r="9.721" transform="translate(68.85 68.147) rotate(-28.663)" fill="#ffb7b7"/>
  <path id="Tracé_40" data-name="Tracé 40" d="M516.62,296.07c1.735-3.121,3.9-5.142,7.474-5.069s6.658-.068,8.265,3.121a5.245,5.245,0,0,0,.617-2.587,2.962,2.962,0,0,1,1.308,2.98,2.164,2.164,0,0,0,1.068-1.776c1.191.4,1.5,2.076.9,3.177a6.072,6.072,0,0,1-2.92,2.277c-1.135.538-.611,3.386-1.352,4.4a11.876,11.876,0,0,0-1.1,2.379.155.155,0,0,1-.07.074,2.094,2.094,0,0,0-1.162,2.145.349.349,0,0,1-.011.2c-1.011,1.905-2.1,3.9-3.936,5.035a6.526,6.526,0,0,1-4.9.758,8.519,8.519,0,0,1-4.661-3.222,16.37,16.37,0,0,1-2.484-5.184,9.7,9.7,0,0,1-.468-5.043,4.182,4.182,0,0,1,3.446-3.33" transform="translate(-442.966 -231.656)"/>
</svg>
