<svg xmlns="http://www.w3.org/2000/svg" xmlns:xlink="http://www.w3.org/1999/xlink" width="513.732" height="837.129" viewBox="0 0 513.732 837.129">
  <defs>
    <filter id="Tracé_362" x="40.141" y="0" width="467.452" height="837.129" filterUnits="userSpaceOnUse">
      <feOffset dx="17" dy="10" input="SourceAlpha"/>
      <feGaussianBlur stdDeviation="17.5" result="blur"/>
      <feFlood flood-opacity="0.6"/>
      <feComposite operator="in" in2="blur"/>
      <feComposite in="SourceGraphic"/>
    </filter>
  </defs>
  <g id="illustration_essai_mobile" transform="translate(0 774.718) rotate(-90)">
    <g id="cubes_deco" transform="translate(281.838 89.676) rotate(180)" opacity="0.35">
      <path id="Tracé_41" data-name="Tracé 41" d="M53.932,62.631H8.7a8.709,8.709,0,0,1-8.7-8.7V8.7A8.709,8.709,0,0,1,8.7,0H53.932a8.708,8.708,0,0,1,8.7,8.7V53.932A8.708,8.708,0,0,1,53.932,62.631ZM8.7,3.48A5.225,5.225,0,0,0,3.48,8.7V53.932A5.225,5.225,0,0,0,8.7,59.152H53.932a5.225,5.225,0,0,0,5.219-5.219V8.7A5.225,5.225,0,0,0,53.932,3.48Z" transform="translate(27.836 22.617)" fill="#8cc63f"/>
      <path id="Tracé_43" data-name="Tracé 43" d="M53.932,62.631H8.7a8.708,8.708,0,0,1-8.7-8.7V8.7A8.708,8.708,0,0,1,8.7,0H53.932a8.709,8.709,0,0,1,8.7,8.7V53.932A8.709,8.709,0,0,1,53.932,62.631ZM8.7,3.48A5.225,5.225,0,0,0,3.479,8.7V53.932A5.225,5.225,0,0,0,8.7,59.152H53.932a5.225,5.225,0,0,0,5.219-5.219V8.7A5.225,5.225,0,0,0,53.932,3.48Z" fill="#8cc63f"/>
    </g>
    <g id="phone" transform="translate(732.218) rotate(90)">
      <path id="Tracé_364" data-name="Tracé 364" d="M512.391,2.683H1.341A1.341,1.341,0,1,1,1.341,0H512.391a1.341,1.341,0,0,1,0,2.683Z" transform="translate(0 729.535)" fill="#cbcbcb"/>
      <g transform="matrix(1, 0, 0, 1, 0, -42.5)" filter="url(#Tracé_362)">
        <path id="Tracé_362-2" data-name="Tracé 362" d="M362.452,173.981h-3.994V63.781C358.458,28.556,330.106,0,295.132,0H63.326C28.352,0,0,28.556,0,63.781V668.348c0,35.226,28.352,63.781,63.326,63.781H295.131c34.974,0,63.326-28.556,63.326-63.781V252.424h3.994Z" transform="translate(75.64 42.5)"/>
      </g>
      <path id="Tracé_363" data-name="Tracé 363" d="M280.213,0H249.956A22.925,22.925,0,0,1,247.8,21.248a22.4,22.4,0,0,1-18.646,10.044H96.354A22.4,22.4,0,0,1,77.708,21.249,22.926,22.926,0,0,1,75.552,0H47.29C21.173,0,0,21.4,0,47.807V653.721c0,26.4,21.173,47.807,47.291,47.807H280.213c26.118,0,47.291-21.4,47.291-47.807h0V47.807C327.5,21.4,306.332,0,280.214,0Z" transform="translate(93.114 16.475)" fill="#f5ffe8"/>
    </g>
    <g id="femme" transform="translate(192.371 156.793) rotate(90)">
      <path id="Tracé_368" data-name="Tracé 368" d="M19.067,9.463a4.406,4.406,0,0,0-3.341-5.022C15.162,4.293,20.03.547,19.067,0,17.5.156,10.649,5.378,9.982,7.065L0,18.509,2.929,26.69,12.968,13.318a4.705,4.705,0,0,0,6.1-3.855Z" transform="translate(90.695)" fill="#ffb7b7"/>
      <path id="Tracé_371" data-name="Tracé 371" d="M10.195,20.085A4.986,4.986,0,0,1,4.482,17.04C4.262,16.5.672,21.113,0,20.085c-.05-1.575,5.044-7.812,6.63-8.693L16.672,0l8.493,1.835L13.22,13.535a4.705,4.705,0,0,1-3.025,6.55Z" transform="translate(6.646 78.842)" fill="#ffb7b7"/>
      <g id="Groupe_14" data-name="Groupe 14" transform="translate(23.944 147.613)">
        <path id="Tracé_373" data-name="Tracé 373" d="M5.965.094,0,0,.717,20.33H5.964Z" transform="translate(0 5.298)" fill="#ffb7b7"/>
        <path id="Tracé_375" data-name="Tracé 375" d="M6.516,0,0,4.183l13.034,15.68,4.415-2.835Z" transform="translate(38.942)" fill="#ffb7b7"/>
      </g>
      <g id="shoes" transform="translate(14.329 162.477)">
        <path id="Tracé_374" data-name="Tracé 374" d="M16.917,0H6.585A6.585,6.585,0,0,0,0,6.584V6.8H16.917Z" transform="translate(0 9.051)"/>
        <path id="Tracé_376" data-name="Tracé 376" d="M11.723,0,3.028,5.582h0a6.585,6.585,0,0,0-1.983,9.1l.116.18L15.4,5.721Z" transform="translate(54.484)"/>
      </g>
      <path id="veste5" d="M12.895,42.47,46.031,7.106,41.561,0,0,35.149Z" transform="translate(55.489 11.522)"/>
      <path id="veste4" d="M32.656,17.885,7.629,49.3,0,45.8,29.417,0Z" transform="translate(17.222 40.258)"/>
      <path id="veste3" d="M51.021,48.758S36.543.674,31.891.024,19.742,12.362,19.742,12.362C10.022,24.763,0,64.932,0,64.932s16.708,1.045,28.921,7.543,26.627-.329,26.627-.329Z" transform="translate(20.702 36.775)"/>
      <path id="vest2" d="M51.021,48.758S36.543.673,31.891.023s-10.245,12.47-10.245,12.47C16.8,32.511,0,64.932,0,64.932s16.708,1.046,28.921,7.543,26.627-.329,26.627-.329Z" transform="translate(20.702 36.776)" opacity="0.1"/>
      <path id="pantalon" d="M37.838,3.352V27.514l2.844,35L54.888,88.991l-6.78,4.843L28.736,68.65,21.074,43.643,9.04,99,0,98.354,6.279,21.6,18.193,0Z" transform="translate(22.007 67.795)"/>
      <path id="pull" d="M5.489,10.978c-4.52,4.52-.323,9.363-.323,9.363L0,31.964l20.341,5.489L27.449,5.69,22.606.524C12.92.2,12.915,0,12.915,0,11.218,1.661,5.489,10.978,5.489,10.978Z" transform="translate(39.759 36.799)" fill="#3a7700"/>
      <path id="veste1" d="M18.7,1.7A8.68,8.68,0,0,0,6.5,3.606c-5.114,7.12-9.842,18.617-3.327,32.956,10.461,23.024,19.564,34.81,23.265,34.809a1.472,1.472,0,0,0,.476-.075c2.278-.773,5.572-4.627,6.168-8.024A4.07,4.07,0,0,0,31.791,59.2C27.615,55.86,20.117,45.458,17.778,31.768c-1.293-7.565,1.214-14.456,3.544-18.9A8.678,8.678,0,0,0,18.811,1.779h0Z" transform="translate(49.329 37.501)"/>
      <g id="tete" transform="translate(45.449 7.575)">
        <circle id="Ellipse_48" data-name="Ellipse 48" cx="11.623" cy="11.623" r="11.623" transform="translate(3.916 1.683)"/>
        <path id="Tracé_370" data-name="Tracé 370" d="M0,6.74A24.37,24.37,0,0,1,8.867,1.006,12.475,12.475,0,0,1,15.584.172a6.4,6.4,0,0,1,4.985,4.2A7.926,7.926,0,0,1,19.76,9.8c-.793,1.692-1.853,3.262-2.494,5.017A11.452,11.452,0,0,0,28.789,30.172c-2.2.3-4.232,1.33-6.384,1.881s-4.692.513-6.292-1.028c-1.692-1.631-1.726-4.284-1.644-6.633q.182-5.238.365-10.476a13.307,13.307,0,0,0-.527-5.281,4.535,4.535,0,0,0-3.95-3.1A6.481,6.481,0,0,0,6.728,7.169,7.415,7.415,0,0,1,3.154,8.957C1.809,9.077.273,8.081.373,6.734Z" transform="translate(16.474)"/>
        <ellipse id="Ellipse_49" data-name="Ellipse 49" cx="8.556" cy="8.556" rx="8.556" ry="8.556" transform="translate(0.42 12.876) rotate(-28.663)" fill="#ffb7b7"/>
        <path id="Tracé_382" data-name="Tracé 382" d="M0,9.406H12.355l.127-1.774.633,1.774h1.9l.251-3.516,1.255,3.516h3.681V9.232A9.242,9.242,0,0,0,10.974,0H9.232A9.242,9.242,0,0,0,0,9.232Z" transform="translate(0 6.227)"/>
        <path id="Tracé_383" data-name="Tracé 383" d="M4.686,14.514,9.959,12.8V0H0L.247.246C3.677,3.672,7.492,15.827,4.686,14.514Z" transform="translate(13.652 7.494)"/>
      </g>
    </g>
  </g>
</svg>
