<svg xmlns="http://www.w3.org/2000/svg" xmlns:xlink="http://www.w3.org/1999/xlink" width="365" height="374.337" viewBox="0 0 365 374.337">
  <defs>
    <filter id="forme_smartphone" x="0" y="0" width="365" height="365" filterUnits="userSpaceOnUse">
      <feOffset input="SourceAlpha"/>
      <feGaussianBlur stdDeviation="5" result="blur"/>
      <feFlood flood-opacity="0.439"/>
      <feComposite operator="in" in2="blur"/>
      <feComposite in="SourceGraphic"/>
    </filter>
    <filter id="Tracé_217" x="13.663" y="25.663" width="343.674" height="348.674" filterUnits="userSpaceOnUse">
      <feOffset dx="3" dy="20" input="SourceAlpha"/>
      <feGaussianBlur stdDeviation="5" result="blur-2"/>
      <feFlood flood-opacity="0.278"/>
      <feComposite operator="in" in2="blur-2"/>
      <feComposite in="SourceGraphic"/>
    </filter>
    <filter id="Icon_awesome-map-marker-alt" x="174.052" y="20.134" width="122.458" height="138.277" filterUnits="userSpaceOnUse">
      <feOffset dx="5" input="SourceAlpha"/>
      <feGaussianBlur stdDeviation="12.5" result="blur-3"/>
      <feFlood flood-opacity="0.239"/>
      <feComposite operator="in" in2="blur-3"/>
      <feComposite in="SourceGraphic"/>
    </filter>
    <filter id="Icon_store" x="118.979" y="141.636" width="182.647" height="101.707" filterUnits="userSpaceOnUse">
      <feOffset dx="5" input="SourceAlpha"/>
      <feGaussianBlur stdDeviation="4" result="blur-4"/>
      <feFlood flood-opacity="0.239"/>
      <feComposite operator="in" in2="blur-4"/>
      <feComposite in="SourceGraphic"/>
    </filter>
    <filter id="Icon_store2" x="109.458" y="89.247" width="204.187" height="84.046" filterUnits="userSpaceOnUse">
      <feOffset dx="5" input="SourceAlpha"/>
      <feGaussianBlur stdDeviation="2.5" result="blur-5"/>
      <feFlood flood-opacity="0.141"/>
      <feComposite operator="in" in2="blur-5"/>
      <feComposite in="SourceGraphic"/>
    </filter>
  </defs>
  <g id="illustration_marketplace_mobile" transform="translate(15 15)">
    <g id="smartphone" transform="translate(0 0)">
      <g transform="matrix(1, 0, 0, 1, -15, -15)" filter="url(#forme_smartphone)">
        <path id="forme_smartphone-2" data-name="forme_smartphone" d="M128.5,315.947H27.572a27.476,27.476,0,0,1-15.416-4.7,27.612,27.612,0,0,1-9.99-12.11A27.311,27.311,0,0,1,0,288.422V27.524A27.364,27.364,0,0,1,4.709,12.135,27.648,27.648,0,0,1,16.84,2.163,27.442,27.442,0,0,1,27.572,0H128.5A27.476,27.476,0,0,1,143.92,4.7a27.61,27.61,0,0,1,9.99,12.11,27.312,27.312,0,0,1,2.167,10.714V75.081h1.739v33.851h-1.739v179.49a27.365,27.365,0,0,1-4.709,15.389,27.646,27.646,0,0,1-12.131,9.972A27.441,27.441,0,0,1,128.5,315.947ZM28.2,7.161A20.6,20.6,0,0,0,7.608,27.716V288.231A20.6,20.6,0,0,0,28.2,308.786H129.616a20.6,20.6,0,0,0,20.591-20.555V27.715A20.6,20.6,0,0,0,129.616,7.161H116.441a9.767,9.767,0,0,1-9.057,13.454H49.562A9.767,9.767,0,0,1,40.5,7.161Z" transform="translate(238.41 15) rotate(45)"/>
      </g>
      <g transform="matrix(1, 0, 0, 1, -15, -15)" filter="url(#Tracé_217)">
        <path id="Tracé_217-2" data-name="Tracé 217" d="M121.692,0H108.552a9.757,9.757,0,0,1-9.034,13.442H41.845A9.757,9.757,0,0,1,32.811,0H20.538A20.538,20.538,0,0,0,0,20.538v260.3a20.538,20.538,0,0,0,20.538,20.538H121.692a20.538,20.538,0,0,0,20.538-20.538h0V20.537A20.538,20.538,0,0,0,121.693,0Z" transform="translate(238.76 25.66) rotate(45)" fill="#f5ffe8"/>
      </g>
    </g>
    <g id="illustration_marketplace" transform="translate(74.934 42.634)">
      <g id="store" transform="translate(22.024)">
        <g transform="matrix(1, 0, 0, 1, -111.96, -57.63)" filter="url(#Icon_awesome-map-marker-alt)">
          <path id="Icon_awesome-map-marker-alt-2" data-name="Icon awesome-map-marker-alt" d="M21.29,62C3.333,35.968,0,33.3,0,23.729a23.729,23.729,0,1,1,47.458,0c0,9.567-3.333,12.239-21.29,38.272a2.967,2.967,0,0,1-4.877,0Zm2.439-28.385a9.887,9.887,0,1,0-9.887-9.887A9.887,9.887,0,0,0,23.729,33.616Z" transform="translate(206.55 57.63)" fill="#3a7700"/>
        </g>
        <g transform="matrix(1, 0, 0, 1, -111.96, -57.63)" filter="url(#Icon_store)">
          <path id="Icon_store-2" data-name="Icon_store" d="M108.37,109.855h-72V66.684H19.041v69.073a8.64,8.64,0,0,0,8.665,8.634h89.329a8.64,8.64,0,0,0,8.665-8.634V66.684H108.37Zm51.989,1.818,17.33-17.629V66.684h-17.33Z" transform="translate(106.94 86.95)" fill="#3a7700"/>
        </g>
        <g transform="matrix(1, 0, 0, 1, -111.96, -57.63)" filter="url(#Icon_store2)">
          <path id="Icon_store2-2" data-name="Icon_store2" d="M184.9,32,164.962,4.047A10.211,10.211,0,0,0,156.638,0H32.546a10.211,10.211,0,0,0-8.324,4.047L4.287,32C-6,46.435,3.12,66.51,22.348,68.8a36.278,36.278,0,0,0,4.208.243,32.294,32.294,0,0,0,22.668-8.931,32.35,32.35,0,0,0,22.668,8.931,32.3,32.3,0,0,0,22.668-8.931,33.234,33.234,0,0,0,45.337,0,32.405,32.405,0,0,0,22.668,8.931,35.886,35.886,0,0,0,4.208-.243C186.063,66.537,195.217,46.462,184.9,32Z" transform="translate(111.95 96.75)" fill="#8cc63f"/>
        </g>
      </g>
      <g id="piece" transform="translate(0 150.12)">
        <path id="Ellipse_29" data-name="Ellipse 29" d="M33.162,20A13.162,13.162,0,1,0,46.325,33.162,13.177,13.177,0,0,0,33.162,20m0-20A33.162,33.162,0,1,1,0,33.162,33.163,33.163,0,0,1,33.162,0Z" transform="translate(0)" fill="#072f00"/>
        <circle id="Ellipse_30" data-name="Ellipse 30" cx="28.52" cy="28.52" r="28.52" transform="translate(4.643 4.643)" fill="#072f00"/>
        <path id="Tracé_214" data-name="Tracé 214" d="M263.723,479.93v-4.151a9.639,9.639,0,0,1-5.535-1.808l.868-2.754a8.848,8.848,0,0,0,5.21,1.767,3.99,3.99,0,0,0,4.305-4.028c0-2.26-1.411-3.658-4.088-4.891-3.69-1.644-5.969-3.534-5.969-7.11a6.462,6.462,0,0,1,5.463-6.617v-4.151h2.243v3.987a8.8,8.8,0,0,1,4.7,1.438l-.9,2.713a8,8,0,0,0-4.558-1.4,3.473,3.473,0,0,0-3.835,3.535c0,2.137,1.339,3.206,4.486,4.685,3.726,1.726,5.608,3.863,5.608,7.521A6.878,6.878,0,0,1,266,475.656v4.275Z" transform="translate(-231.927 -429.939)" fill="#8cc63f"/>
      </g>
      <path id="Icon_awesome-map-marker-alt-3" data-name="Icon awesome-map-marker-alt" d="M21.29,62C3.333,35.968,0,33.3,0,23.729a23.729,23.729,0,1,1,47.458,0c0,9.567-3.333,12.239-21.29,38.272a2.967,2.967,0,0,1-4.877,0Zm2.439-28.385a9.887,9.887,0,1,0-9.887-9.887A9.887,9.887,0,0,0,23.729,33.616Z" transform="translate(116.618 0)" fill="#072f00"/>
    </g>
    <g id="eclats_verts_logo" transform="matrix(0.292, -0.956, 0.956, 0.292, 74.667, 74.047)">
      <path id="Tracé_195" data-name="Tracé 195" d="M0,26.178,2.082,0l10.61,2.776L2.677,26.971Z" transform="translate(0 0)" fill="#8cc63f"/>
      <path id="Tracé_196" data-name="Tracé 196" d="M0,30.374,4.153,0l10.61,3.243L2.943,31.284Z" transform="translate(27.113 1.939) rotate(16)" fill="#8cc63f"/>
      <path id="Tracé_197" data-name="Tracé 197" d="M0,11.9,17.65,0l4.165,10.015L.892,14.676Z" transform="translate(25.682 31.632)" fill="#8cc63f"/>
    </g>
  </g>
</svg>
