<svg xmlns="http://www.w3.org/2000/svg" width="395.275" height="620.012" viewBox="0 0 395.275 620.012">
  <g id="Groupe_16" data-name="Groupe 16" transform="translate(-1195.725 -37.077)">
    <g id="cubes_deco" transform="translate(1267.458 284.88) rotate(-90)" opacity="0.35">
      <path id="Tracé_41" data-name="Tracé 41" d="M147.729,171.557H23.827A23.854,23.854,0,0,1,0,147.73V23.827A23.854,23.854,0,0,1,23.827,0h123.9a23.854,23.854,0,0,1,23.827,23.827v123.9A23.854,23.854,0,0,1,147.729,171.557ZM23.827,9.531a14.311,14.311,0,0,0-14.3,14.3v123.9a14.312,14.312,0,0,0,14.3,14.3h123.9a14.312,14.312,0,0,0,14.3-14.3V23.827a14.312,14.312,0,0,0-14.3-14.3Z" transform="translate(76.247 61.951)" fill="#8cc63f"/>
      <path id="Tracé_43" data-name="Tracé 43" d="M147.729,171.557H23.827A23.854,23.854,0,0,1,0,147.729V23.827A23.854,23.854,0,0,1,23.827,0h123.9a23.854,23.854,0,0,1,23.827,23.827v123.9A23.854,23.854,0,0,1,147.729,171.557ZM23.827,9.531a14.313,14.313,0,0,0-14.3,14.3v123.9a14.312,14.312,0,0,0,14.3,14.3h123.9a14.312,14.312,0,0,0,14.3-14.3V23.827a14.313,14.313,0,0,0-14.3-14.3Z" fill="#8cc63f"/>
    </g>
    <g id="femme" transform="translate(1195.725 63)">
      <path id="Tracé_367" data-name="Tracé 367" d="M626.14,760.564h393.211a1.032,1.032,0,0,0,0-2.064H626.14a1.032,1.032,0,0,0,0,2.064Z" transform="translate(-625.108 -166.476)" fill="#cbcbcb"/>
      <path id="Tracé_368" data-name="Tracé 368" d="M60.946,30.248A14.082,14.082,0,0,0,50.267,14.2C48.466,13.721,64.024,1.749,60.946,0,55.935.5,34.039,17.189,31.908,22.584L0,59.164,9.362,85.313,41.452,42.57A15.04,15.04,0,0,0,60.946,30.248Z" transform="matrix(0.985, -0.174, 0.174, 0.985, 262.108, 10.653)" fill="#ffb7b7"/>
      <path id="Tracé_371" data-name="Tracé 371" d="M682.7,515.217c-7.383,2.051-15.354-2.646-18.26-9.735-.706-1.723-12.178,13.019-14.327,9.735-.16-5.033,16.123-24.97,21.193-27.788l32.1-36.414,27.148,5.865-38.183,37.4a15.04,15.04,0,0,1-9.669,20.938Z" transform="translate(-628.867 -176.33)" fill="#ffb7b7"/>
      <g id="Groupe_14" data-name="Groupe 14" transform="translate(76.535 494.507)">
        <path id="Tracé_373" data-name="Tracé 373" d="M526.44,541.22l-19.066-.3,2.293,64.984h16.77Z" transform="translate(-507.374 -523.985)" fill="#ffb7b7"/>
        <path id="Tracé_375" data-name="Tracé 375" d="M648.812,524.511l-20.828,13.371L669.646,588l14.112-9.06Z" transform="translate(-503.508 -524.511)" fill="#ffb7b7"/>
      </g>
      <g id="shoes" transform="translate(45.801 542.021)">
        <path id="Tracé_374" data-name="Tracé 374" d="M723.561,738.082H690.533a21.049,21.049,0,0,0-21.047,21.046v.685l54.074,0Z" transform="translate(-669.486 -709.15)"/>
        <path id="Tracé_376" data-name="Tracé 376" d="M875.7,710.049l-27.792,17.843h0a21.048,21.048,0,0,0-6.339,29.082l.369.576,45.5-29.214Z" transform="translate(-664.078 -710.049)"/>
      </g>
      <path id="veste5" d="M41.217,135.753,147.135,22.713,132.849,0,0,112.353Z" transform="matrix(0.985, -0.174, 0.174, 0.985, 157.678, 66.465)"/>
      <path id="veste4" d="M590.94,249.18l-80,100.418-24.385-11.2,94.03-146.391Z" transform="translate(-431.506 -40.66)"/>
      <path id="veste3" d="M852.311,476.58S806.035,322.88,791.163,320.8s-38.834,39.438-38.834,39.438c-31.068,39.639-63.1,168.039-63.1,168.039s53.4,3.342,92.444,24.112,85.111-1.051,85.111-1.051Z" transform="translate(-623.053 -180.506)"/>
      <path id="vest2" d="M852.311,476.58S806.035,322.88,791.163,320.8s-32.748,39.859-32.748,39.859c-15.481,63.987-69.189,167.618-69.189,167.618s53.4,3.342,92.444,24.112,85.111-1.051,85.111-1.051Z" transform="translate(-623.053 -180.506)" opacity="0.1"/>
      <path id="pantalon" d="M622.323,288.015v77.233l9.089,111.878,45.41,84.628-21.673,15.481-61.923-80.5L568.735,416.8,530.271,593.748l-28.9-2.064,20.069-245.33L559.527,277.3Z" transform="translate(-431.031 -37.927)" fill="#072f00"/>
      <path id="pull" d="M765.795,355.89c-14.448,14.449-1.032,29.929-1.032,29.929L748.25,422.973l65.019,17.545,22.722-101.531L820.51,322.474c-30.962-1.032-30.979-1.674-30.979-1.674C784.107,326.109,765.795,355.89,765.795,355.89Z" transform="translate(-621.161 -180.504)" fill="#8cc63f"/>
      <path id="veste1" d="M837.659,328.4a27.746,27.746,0,0,0-38.988,6.1c-16.346,22.759-31.459,59.509-10.635,105.343,33.437,73.6,62.535,111.269,74.364,111.266a4.7,4.7,0,0,0,1.521-.239c7.281-2.47,17.809-14.791,19.715-25.649.682-3.886.52-9.3-4.128-13.017-13.35-10.678-37.317-43.925-44.793-87.687-4.132-24.181,3.881-46.207,11.33-60.426a27.741,27.741,0,0,0-8.026-35.429h0Z" transform="translate(-620.211 -180.434)"/>
      <g id="tete" transform="translate(145.276 46.884)">
        <circle id="Ellipse_48" data-name="Ellipse 48" cx="37.154" cy="37.154" r="37.154" transform="translate(12.517 5.378)"/>
        <path id="Tracé_370" data-name="Tracé 370" d="M816.894,251.832A77.9,77.9,0,0,1,845.237,233.5c6.851-2.538,14.309-4.107,21.472-2.665s13.937,6.4,15.935,13.425c1.634,5.747-.053,11.934-2.589,17.344s-5.921,10.426-7.972,16.038a36.6,36.6,0,0,0,36.833,49.086c-7.038.944-13.526,4.251-20.4,6.012s-15,1.641-20.11-3.287c-5.409-5.214-5.517-13.692-5.256-21.2q.583-16.742,1.166-33.485c.2-5.692.368-11.567-1.685-16.88s-6.931-9.965-12.627-9.917c-4.317.037-8.137,2.652-11.6,5.23s-7.126,5.33-11.426,5.714-9.209-2.8-8.887-7.1Z" transform="translate(-764.237 -230.289)"/>
        <ellipse id="Ellipse_49" data-name="Ellipse 49" cx="27.349" cy="27.349" rx="27.349" ry="27.349" transform="translate(1.343 41.158) rotate(-28.663)" fill="#ffb7b7"/>
        <path id="Tracé_382" data-name="Tracé 382" d="M765.872,279.641h39.492l.405-5.67,2.025,5.67h6.081l.8-11.238,4.013,11.238h11.766v-.557a29.542,29.542,0,0,0-29.508-29.508h-5.568a29.542,29.542,0,0,0-29.509,29.509Z" transform="translate(-765.872 -229.671)"/>
        <path id="Tracé_383" data-name="Tracé 383" d="M823.135,299.895l16.854-5.468V253.5H808.156l.788.787C819.909,265.237,832.1,304.091,823.135,299.895Z" transform="translate(-764.517 -229.545)"/>
      </g>
    </g>
  </g>
</svg>
