<svg xmlns="http://www.w3.org/2000/svg" xmlns:xlink="http://www.w3.org/1999/xlink" width="385.203" height="330.681" viewBox="0 0 385.203 330.681">
  <defs>
    <filter id="Tracé_46" x="0" y="8.693" width="244.49" height="321.988" filterUnits="userSpaceOnUse">
      <feOffset dx="-30" dy="1" input="SourceAlpha"/>
      <feGaussianBlur stdDeviation="7.5" result="blur"/>
      <feFlood flood-opacity="0.2"/>
      <feComposite operator="in" in2="blur"/>
      <feComposite in="SourceGraphic"/>
    </filter>
  </defs>
  <g id="illustration_accueil" transform="translate(10.203 -14.547)">
    <g id="eclats_verts_logo" transform="translate(178.241 18.659)">
      <path id="Tracé_195" data-name="Tracé 195" d="M-506.831-176.232l1.085-13.643,5.53,1.447-5.22,12.61Z" transform="translate(506.831 189.876)" fill="#8cc63f"/>
      <path id="Tracé_196" data-name="Tracé 196" d="M0,15.83,2.165,0l5.53,1.69L1.534,16.3Z" transform="translate(14.131 1.011) rotate(16)" fill="#8cc63f"/>
      <path id="Tracé_197" data-name="Tracé 197" d="M-486.551-158.7l9.2-6.2,2.171,5.22-10.9,2.429Z" transform="translate(499.936 181.384)" fill="#8cc63f"/>
    </g>
    <g id="eclats_verts_logo-2" data-name="eclats_verts_logo" transform="translate(49.754 269.379) rotate(-168)">
      <path id="Tracé_195-2" data-name="Tracé 195" d="M0,25.718,2.046,0,12.469,2.728,2.63,26.5Z" transform="translate(0 0)" fill="#8cc63f"/>
      <path id="Tracé_196-2" data-name="Tracé 196" d="M0,29.84,4.08,0,14.5,3.186,2.891,30.734Z" transform="translate(26.637 1.905) rotate(16)" fill="#8cc63f"/>
      <path id="Tracé_197-2" data-name="Tracé 197" d="M0,11.69,17.34,0l4.092,9.839L.877,14.418Z" transform="translate(25.231 31.076)" fill="#8cc63f"/>
    </g>
    <g id="illustration_intro" transform="translate(0 14.547)">
      <g id="cubes_deco" transform="translate(0 43.03)" opacity="0.35">
        <path id="Tracé_41" data-name="Tracé 41" d="M671.9,263.646H649.77a4.261,4.261,0,0,1-4.256-4.256V237.256A4.261,4.261,0,0,1,649.77,233H671.9a4.261,4.261,0,0,1,4.256,4.256v22.133A4.261,4.261,0,0,1,671.9,263.646ZM649.77,234.7a2.556,2.556,0,0,0-2.554,2.554v22.133a2.557,2.557,0,0,0,2.554,2.554H671.9a2.557,2.557,0,0,0,2.554-2.554V237.256A2.557,2.557,0,0,0,671.9,234.7Z" transform="translate(-631.894 -221.934)" fill="#8cc63f"/>
        <path id="Tracé_43" data-name="Tracé 43" d="M655.9,250.646H633.771a4.261,4.261,0,0,1-4.256-4.256V224.256A4.261,4.261,0,0,1,633.771,220H655.9a4.261,4.261,0,0,1,4.256,4.256v22.133A4.261,4.261,0,0,1,655.9,250.646ZM633.771,221.7a2.557,2.557,0,0,0-2.554,2.554v22.133a2.557,2.557,0,0,0,2.554,2.554H655.9a2.557,2.557,0,0,0,2.554-2.554V224.256A2.557,2.557,0,0,0,655.9,221.7Z" transform="translate(-629.514 -220)" fill="#8cc63f"/>
      </g>
      <g id="cubes_deco-2" data-name="cubes_deco" transform="translate(196.254 127.58)" opacity="0.35">
        <path id="Tracé_41-2" data-name="Tracé 41" d="M666.756,257.668H648.94a3.43,3.43,0,0,1-3.426-3.426V236.426A3.43,3.43,0,0,1,648.94,233h17.816a3.43,3.43,0,0,1,3.426,3.426v17.816A3.43,3.43,0,0,1,666.756,257.668Zm-17.816-23.3a2.058,2.058,0,0,0-2.056,2.056v17.816a2.058,2.058,0,0,0,2.056,2.056h17.816a2.058,2.058,0,0,0,2.056-2.056V236.426a2.058,2.058,0,0,0-2.056-2.056Z" transform="translate(-634.55 -224.092)" fill="#8cc63f"/>
        <path id="Tracé_43-2" data-name="Tracé 43" d="M650.756,244.668H632.94a3.43,3.43,0,0,1-3.426-3.426V223.426A3.43,3.43,0,0,1,632.94,220h17.816a3.43,3.43,0,0,1,3.426,3.426v17.816A3.43,3.43,0,0,1,650.756,244.668Zm-17.816-23.3a2.058,2.058,0,0,0-2.056,2.056v17.816a2.058,2.058,0,0,0,2.056,2.056h17.816a2.058,2.058,0,0,0,2.056-2.056V223.426a2.058,2.058,0,0,0-2.056-2.056Z" transform="translate(-629.514 -220)" fill="#8cc63f"/>
      </g>
      <g id="cubes_deco-3" data-name="cubes_deco" transform="translate(244.278 100.66) rotate(-90)" opacity="0.35">
        <path id="Tracé_41-3" data-name="Tracé 41" d="M60.009,69.688H9.679A9.69,9.69,0,0,1,0,60.009V9.679A9.69,9.69,0,0,1,9.679,0h50.33a9.69,9.69,0,0,1,9.679,9.679v50.33A9.69,9.69,0,0,1,60.009,69.688ZM9.679,3.872A5.813,5.813,0,0,0,3.872,9.679v50.33a5.814,5.814,0,0,0,5.808,5.807h50.33a5.814,5.814,0,0,0,5.807-5.807V9.679a5.814,5.814,0,0,0-5.807-5.807Z" transform="translate(30.972 25.165)" fill="#8cc63f"/>
        <path id="Tracé_43-3" data-name="Tracé 43" d="M60.009,69.688H9.679A9.69,9.69,0,0,1,0,60.009V9.679A9.69,9.69,0,0,1,9.679,0h50.33a9.69,9.69,0,0,1,9.679,9.679v50.33A9.69,9.69,0,0,1,60.009,69.688ZM9.679,3.872A5.814,5.814,0,0,0,3.871,9.679v50.33a5.814,5.814,0,0,0,5.808,5.807h50.33a5.814,5.814,0,0,0,5.807-5.807V9.679a5.814,5.814,0,0,0-5.807-5.807Z" fill="#8cc63f"/>
      </g>
      <g id="smartphone" transform="translate(42.297 30.194)">
        <g transform="matrix(1, 0, 0, 1, -52.5, -30.19)" filter="url(#Tracé_46)">
          <path id="Tracé_46-2" data-name="Tracé 46" d="M235.894,164.038H339.738a22.075,22.075,0,0,1,21.535,17.22l52.47,232.734a17.841,17.841,0,0,1-16.527,21.744L290.464,441A23.571,23.571,0,0,1,266.11,421.65L236.345,257.1l-2.214.633-5.7-31.188,2.279-.57-8.308-45.931a13.592,13.592,0,0,1,13.487-16.01Z" transform="translate(-169.69 -133.84)"/>
        </g>
        <path id="Tracé_47" data-name="Tracé 47" d="M339.565,175.664h12.122a15.256,15.256,0,0,1,14.9,12l50.917,232.494a9.453,9.453,0,0,1-8.617,11.448l-106.959,5.316a12.243,12.243,0,0,1-12.849-10.046L246.106,188.287a10.723,10.723,0,0,1,10.553-12.624h11.5a5.061,5.061,0,0,1,4.887,3.745h0a4.468,4.468,0,0,0,4.314,3.306h54.591a7.637,7.637,0,0,0,7.614-7.051Z" transform="translate(-235.688 -170.646)" fill="#f5ffe8"/>
        <path id="Tracé_48" data-name="Tracé 48" d="M104,188.606H219.436l12.3,55.412-116.945,2.158Z" transform="translate(-85.302 -144.34)" fill="#8cc63f"/>
        <path id="Tracé_49" data-name="Tracé 49" d="M0,0H27.177l.863,5.2H.863Z" transform="matrix(1, -0.017, 0.017, 1, 128.275, 149.448)" fill="#8cc63f"/>
        <rect id="Rectangle_4" data-name="Rectangle 4" width="115.285" height="0.543" transform="translate(35.171 125.104) rotate(-1.213)" fill="#2f2e41"/>
        <rect id="Rectangle_5" data-name="Rectangle 5" width="117.46" height="0.543" transform="matrix(1, -0.023, 0.023, 1, 36.526, 141.374)" fill="#2f2e41"/>
        <path id="Tracé_50" data-name="Tracé 50" d="M384,560.093l27.121-.816,1.179,5.11-27.437.909Z" transform="translate(-244.461 -355.217)" fill="#8cc63f"/>
        <rect id="Rectangle_6" data-name="Rectangle 6" width="115.285" height="0.543" transform="translate(46.392 180.777) rotate(-1.213)" fill="#2f2e41"/>
        <rect id="Rectangle_7" data-name="Rectangle 7" width="117.46" height="0.543" transform="matrix(1, -0.023, 0.023, 1, 47.747, 197.047)" fill="#2f2e41"/>
      </g>
      <g id="femme" transform="translate(209.706 112.608)">
        <path id="Tracé_51" data-name="Tracé 51" d="M605.565,705.083h-5.142l-2.446-19.834h7.589Z" transform="translate(-553.093 -509.058)" fill="#a0616a"/>
        <path id="Tracé_52" data-name="Tracé 52" d="M758.274,811.98H741.693v-.21a6.454,6.454,0,0,1,6.453-6.454h10.128Z" transform="translate(-704.49 -610.97)"/>
        <path id="Tracé_53" data-name="Tracé 53" d="M747.859,697.977l-5.005,1.179-6.928-18.745,7.387-1.74Z" transform="translate(-631.506 -505.319)" fill="#a0616a"/>
        <path id="Tracé_54" data-name="Tracé 54" d="M909.147,803.408l-16.139,3.8-.048-.2a6.454,6.454,0,0,1,4.8-7.761h0l9.857-2.321Z" transform="translate(-790.375 -606.199)"/>
        <path id="Tracé_55" data-name="Tracé 55" d="M762.9,569.55c.01-1.034.316-25.427,7-34.65l.1-.136,23.3,3.215-.521,5.12c1.025,1,9.087,9.421,11.415,29.37L828.926,638.9l-11.5,1.045-34.036-72.512-18.012,78.821h-11.4Z" transform="translate(-711.475 -457.182)" fill="#072f00"/>
        <path id="Tracé_56" data-name="Tracé 56" d="M784.539,483.725l2.278-11.958a9.425,9.425,0,0,1-1.982-6.562,8.084,8.084,0,0,1,3.741-5.5l5.9-13.776.079-.047c.4-.234,9.8-5.67,14.923-.542.128.1,12.746,10.115,7.679,23.627l-6.255,18.767Z" transform="translate(-728.845 -405.107)" fill="#8cc63f"/>
        <path id="Tracé_57" data-name="Tracé 57" d="M759.9,552.3a4.228,4.228,0,0,0,3.571-5.412l12.192-8.784-7.3-2.776-10.459,8.767A4.252,4.252,0,0,0,759.9,552.3Z" transform="translate(-712.135 -457.501)" fill="#a0616a"/>
        <path id="Tracé_58" data-name="Tracé 58" d="M771.369,486.327l18.614-14.665-5.534-18.907a6.793,6.793,0,0,1,.686-5.376,6.283,6.283,0,0,1,4.12-2.974c3.187-.674,6.079,1.11,8.6,5.3l.019.038c.416,1.018,10.113,24.989,2.709,30.115-7.243,5.014-24.038,12.314-24.207,12.387l-.2.085Z" transform="translate(-721.359 -405.741)" fill="#8cc63f"/>
        <circle id="Ellipse_5" data-name="Ellipse 5" cx="11.276" cy="11.276" r="11.276" transform="translate(63.473 12.701)" fill="#a0616a"/>
        <circle id="Ellipse_6" data-name="Ellipse 6" cx="9.976" cy="9.976" r="9.976" transform="translate(82.452)"/>
        <path id="Tracé_59" data-name="Tracé 59" d="M869.3,384.968a9.976,9.976,0,0,1-15.4-5.238,9.976,9.976,0,1,0,19.46-4.091A9.972,9.972,0,0,1,869.3,384.968Z" transform="translate(-768.268 -366.732)"/>
        <path id="Tracé_60" data-name="Tracé 60" d="M798.37,386.921c1.741-3.118,2.408-4.42,4.653-6.316,1.986-1.677,4.428-2.169,6.4-.58a11.864,11.864,0,1,1-7.038,9.5C800.671,389.28,800.083,387.162,798.37,386.921Z" transform="translate(-736.706 -368.674)"/>
        <path id="Tracé_61" data-name="Tracé 61" d="M820.352,820.863H655.922a.432.432,0,0,1,0-.863h164.43a.432.432,0,1,1,0,.863Z" transform="translate(-655.49 -619.317)" fill="#3f3d56"/>
      </g>
      <g id="Groupe_15" data-name="Groupe 15" transform="translate(101.049 82.927)">
        <path id="Tracé_198" data-name="Tracé 198" d="M3.921.069A4.232,4.232,0,0,1,5.455.325a4.062,4.062,0,0,1,1.273.751,3.729,3.729,0,0,1,.883,1.133,3.42,3.42,0,0,1,.363,1.4,3.34,3.34,0,0,1-.251,1.415,3.532,3.532,0,0,1-.794,1.169A3.86,3.86,0,0,1,5.713,7,4.145,4.145,0,0,1,4.2,7.314a4.232,4.232,0,0,1-1.541-.255A4.063,4.063,0,0,1,1.376,6.3,3.728,3.728,0,0,1,.491,5.166a3.419,3.419,0,0,1-.36-1.407A3.344,3.344,0,0,1,.39,2.343a3.539,3.539,0,0,1,.8-1.165A3.868,3.868,0,0,1,2.407.38,4.152,4.152,0,0,1,3.921.069Z" transform="translate(14.807 33.791)" fill="#fff"/>
        <path id="Tracé_199" data-name="Tracé 199" d="M3.858.068A4.158,4.158,0,0,1,5.37.322a4.049,4.049,0,0,1,1.261.745,3.753,3.753,0,0,1,.881,1.123,3.44,3.44,0,0,1,.373,1.39,3.317,3.317,0,0,1-.232,1.4,3.452,3.452,0,0,1-.768,1.159,3.739,3.739,0,0,1-1.188.8,4.026,4.026,0,0,1-1.49.314A4.158,4.158,0,0,1,2.687,7,4.049,4.049,0,0,1,1.42,6.252,3.752,3.752,0,0,1,.537,5.122a3.438,3.438,0,0,1-.37-1.4,3.32,3.32,0,0,1,.24-1.4,3.458,3.458,0,0,1,.775-1.156,3.747,3.747,0,0,1,1.19-.79A4.032,4.032,0,0,1,3.858.068Z" transform="translate(36.228 33.417)" fill="#fff"/>
        <path id="Tracé_200" data-name="Tracé 200" d="M38.835,29.93l-18.9.306a6.362,6.362,0,0,1-2.041-.268,6.185,6.185,0,0,1-1.781-.868,5.74,5.74,0,0,1-1.371-1.362,5.236,5.236,0,0,1-.811-1.749l-3.78-14.832-.011-.037-.01-.037-.009-.037-.008-.038L8.249,3.691l-6.193.038a2.156,2.156,0,0,1-.764-.134A2.043,2.043,0,0,1,.66,3.221a1.827,1.827,0,0,1-.435-.557,1.633,1.633,0,0,1-.174-.684,1.583,1.583,0,0,1,.133-.686,1.7,1.7,0,0,1,.4-.561A1.914,1.914,0,0,1,1.2.353,2.1,2.1,0,0,1,1.95.211L9.721.174a2.147,2.147,0,0,1,.664.1,2.072,2.072,0,0,1,.577.289,1.9,1.9,0,0,1,.443.443,1.709,1.709,0,0,1,.263.564l1.889,7.364,31.025-.252a2.084,2.084,0,0,1,.815.159,2.041,2.041,0,0,1,.363.2,1.956,1.956,0,0,1,.314.265,1.85,1.85,0,0,1,.246.32,1.742,1.742,0,0,1,.164.355,1.654,1.654,0,0,1,.078.376,1.6,1.6,0,0,1-.012.384L44.267,25.531l0,.013a4.908,4.908,0,0,1-.631,1.733,5.2,5.2,0,0,1-1.2,1.38,5.648,5.648,0,0,1-1.643.92A6.059,6.059,0,0,1,38.835,29.93ZM19.783,26.647l18.88-.28a2.02,2.02,0,0,0,.649-.116,1.884,1.884,0,0,0,.547-.3,1.735,1.735,0,0,0,.4-.457,1.636,1.636,0,0,0,.213-.575L42.468,12.2l-28.006.264,3.277,12.77a1.746,1.746,0,0,0,.271.584,1.915,1.915,0,0,0,.458.454,2.063,2.063,0,0,0,.595.289,2.122,2.122,0,0,0,.682.089Z" fill="#fff"/>
      </g>
    </g>
  </g>
</svg>
