<svg xmlns="http://www.w3.org/2000/svg" width="161.718" height="128.875" viewBox="0 0 161.718 128.875">
  <g id="illustration_vip" transform="matrix(0.809, 0.588, -0.588, 0.809, 50.256, -62.096)">
    <path id="Tracé_344" data-name="Tracé 344" d="M94.322,29.5a36.527,36.527,0,0,0-68.29-9.752,29.222,29.222,0,0,0,3.176,58.269H92.615a24.457,24.457,0,0,0,24.378-24.394A24.084,24.084,0,0,0,94.322,29.5ZM66.284,43.874V62.407H50.68V43.874H34.1L58.486,19.5,82.848,43.874Z" transform="matrix(0.809, -0.588, 0.588, 0.809, 0, 85.501)" fill="#8cc63f" opacity="0.5"/>
    <path id="Tracé_342" data-name="Tracé 342" d="M14.6,0S0,8.785,0,19.578,14.6,46.626,14.6,46.626,28.112,30.371,28.112,19.578,14.6,0,14.6,0Z" transform="translate(107.106 91.185)" fill="#8cc63f"/>
    <path id="Tracé_343" data-name="Tracé 343" d="M7.583,0S0,4.563,0,10.168,7.583,24.216,7.583,24.216,14.6,15.774,14.6,10.168,7.583,0,7.583,0Z" transform="translate(114.407 98.816)" fill="#f5ffe8"/>
    <g id="Groupe_11" data-name="Groupe 11" transform="translate(93.255 0)">
      <path id="Tracé_329" data-name="Tracé 329" d="M16.046,21.877a5.774,5.774,0,0,0-1.132.323C6.769,25.453,6.905,46.742,6.905,46.742h-2.4A151.373,151.373,0,0,0,.462,24.571C-2.5,12.843,9.655,2.333,12.124.34c.278-.222.432-.34.432-.34C24.8,4.5,16.046,21.877,16.046,21.877Z" transform="translate(0 64.182)" fill="#43493a"/>
      <path id="Tracé_330" data-name="Tracé 330" d="M13.439.367c-.282-.13-.574-.254-.883-.367,0,0-.151.118-.432.34C9.655,2.333-2.5,12.843.462,24.571A150.618,150.618,0,0,1,4.5,46.739H5.848A150.13,150.13,0,0,0,1.8,24.568C-1.149,12.895,10.89,2.423,13.439.367Z" transform="translate(0.008 64.185)" fill="#fff" opacity="0.2"/>
      <path id="Tracé_331" data-name="Tracé 331" d="M18.617,24.574a149.685,149.685,0,0,0-4.041,22.169h-2.4s.151-22.25-8.566-24.734a4.763,4.763,0,0,0-.575-.134S-5.725,4.5,6.524,0c0,0,.124.092.347.272C9.14,2.088,21.614,12.71,18.617,24.574Z" transform="translate(37.826 64.182)" fill="#43493a"/>
      <path id="Tracé_332" data-name="Tracé 332" d="M3.923,21.874A5.774,5.774,0,0,0,2.79,22.2,147.856,147.856,0,0,1,0,.34C.278.118.432,0,.432,0,12.676,4.5,3.923,21.874,3.923,21.874Z" transform="translate(12.124 64.185)" opacity="0.1"/>
      <path id="Tracé_333" data-name="Tracé 333" d="M6.871.266A136.041,136.041,0,0,1,3.608,22.009a4.767,4.767,0,0,0-.575-.134S-5.725,4.5,6.524,0C6.519-.006,6.643.086,6.871.266Z" transform="translate(37.831 64.191)" opacity="0.1"/>
      <path id="Tracé_334" data-name="Tracé 334" d="M27.824,89.354q-1.268,5-2.973,10.267s-5.393,5.618-18.421,0A98.821,98.821,0,0,1,3.7,89.715C.546,76-3.233,49.865,4.819,23.02A99.916,99.916,0,0,1,14.963,0s6.879,7.9,11.928,23.016S35.153,60.472,27.824,89.354Z" transform="translate(12.395 0)" fill="#e6e6e6"/>
      <circle id="Ellipse_46" data-name="Ellipse 46" cx="10.816" cy="10.816" r="10.816" transform="translate(17.636 33.516)" fill="#43493a"/>
      <path id="Tracé_335" data-name="Tracé 335" d="M15.339,7.669A7.67,7.67,0,0,1,2.807,13.6a7.753,7.753,0,0,1-1.437-1.56,7.557,7.557,0,0,1-.5-.814A7.655,7.655,0,0,1,0,7.669V7.486A7.679,7.679,0,0,1,5.587.281,7.931,7.931,0,0,1,7.435,0h.229A7.67,7.67,0,0,1,15.339,7.669Z" transform="translate(20.783 36.668)"/>
      <path id="Tracé_336" data-name="Tracé 336" d="M22.078,23.016A24.39,24.39,0,0,1,0,23.016,99.918,99.918,0,0,1,10.151,0S17.03,7.9,22.078,23.016Z" transform="translate(17.206 0)" fill="#43493a"/>
      <path id="Tracé_337" data-name="Tracé 337" d="M24.133,0q-.861,3.388-1.918,6.893-.5,1.671-1.057,3.37s-5.393,5.618-18.421,0c0,0-.423-1.191-1.057-3.37C1.206,5.247.616,3.041,0,.356a32.684,32.684,0,0,0,11.734,2.07A32.328,32.328,0,0,0,24.133,0Z" transform="translate(16.086 89.354)" fill="#43493a"/>
      <path id="Tracé_338" data-name="Tracé 338" d="M20.535,0q-.5,1.671-1.057,3.37s-5.393,5.618-18.421,0C1.057,3.37.634,2.179,0,0,0,0,13.277,3.82,20.535,0Z" transform="translate(17.766 96.247)" fill="#43493a"/>
      <path id="Tracé_339" data-name="Tracé 339" d="M5.588.281,5.572.293,0,7.486v.183a7.656,7.656,0,0,0,.874,3.559L7.439,0Z" transform="translate(20.786 36.658)" fill="#fff" opacity="0.2"/>
      <path id="Tracé_340" data-name="Tracé 340" d="M6,.562,1.437,7.394A7.751,7.751,0,0,1,0,5.834L5.436,0Z" transform="translate(22.153 42.87)" fill="#fff" opacity="0.2"/>
      <path id="Tracé_341" data-name="Tracé 341" d="M9.352,99.617A98.964,98.964,0,0,1,6.619,89.71C3.468,75.994-.312,49.859,7.741,23.014a100.287,100.287,0,0,1,8.886-20.85C15.6.731,14.966,0,14.966,0A99.908,99.908,0,0,0,4.819,23.014C-3.233,49.859.546,75.994,3.7,89.71A98.97,98.97,0,0,0,6.43,99.617c5.147,2.218,9.1,2.683,12,2.436A28.6,28.6,0,0,1,9.352,99.617Z" transform="translate(12.387 0.002)" fill="#fff" opacity="0.2"/>
    </g>
  </g>
</svg>
