<svg xmlns="http://www.w3.org/2000/svg" width="170.585" height="90.718" viewBox="0 0 170.585 90.718">
  <g id="illustration_expert" transform="translate(0 0)">
    <g id="jauge">
      <path id="Tracé_218" data-name="Tracé 218" d="M608.125,302.512A2.76,2.76,0,0,1,605.656,301a32.528,32.528,0,0,0-19.3-16.248,36.9,36.9,0,0,0-5.173-1.171l-.356-.054,18.406-57.549.311.011c35.759,9.717,56.219,38.376,61.638,46.929a2.764,2.764,0,0,1-1.105,3.952l-50.71,25.344A2.771,2.771,0,0,1,608.125,302.512Z" transform="translate(-491.025 -222.738)" fill="#e6e6e6"/>
      <circle id="Ellipse_31" data-name="Ellipse 31" cx="4.922" cy="4.922" r="4.922" transform="translate(81.291 80.875)"/>
      <path id="Tracé_219" data-name="Tracé 219" d="M488.037,300.41a2.763,2.763,0,0,1-1.292-.323l-50.416-26.6a2.768,2.768,0,0,1-1.071-3.891,111.756,111.756,0,0,1,25.217-28.283c17.411-13.8,37.215-20.722,58.86-20.606a93.436,93.436,0,0,1,24.032,3.254l.31.084-18.411,57.545-.259-.039A41.051,41.051,0,0,0,520,281.11c-18.733-.529-26.851,12.228-29.472,17.736a2.715,2.715,0,0,1-1.612,1.421A2.777,2.777,0,0,1,488.037,300.41Z" transform="translate(-434.852 -220.709)" fill="#8cc63f"/>
      <path id="Tracé_220" data-name="Tracé 220" d="M599.716,226.483,586.7,284.655a37.176,37.176,0,0,0-5.217-1.181l18.228-56.991Z" transform="translate(-491.277 -222.931)"/>
    </g>
  </g>
</svg>
