<svg xmlns="http://www.w3.org/2000/svg" width="155.296" height="139.148" viewBox="0 0 155.296 139.148">
  <g id="illustration_tout_en_un_ERP" transform="translate(2.095)">
    <path id="Tracé_254" data-name="Tracé 254" d="M351.451,789.169c-3.557,3.594,39.166,6.814,77.956,6.34s73.362-2.746,76.919-6.34-38.13-4.742-76.919-4.268S355.008,785.574,351.451,789.169Z" transform="translate(-353.337 -666.374)" fill="#e6e6e6"/>
    <path id="Tracé_86" data-name="Tracé 86" d="M796.506,156.9a16,16,0,0,1,.51,9.834,6.889,6.889,0,0,1-.842,1.989,3.952,3.952,0,0,1-1.572,1.363,8.185,8.185,0,0,0-1.728.968,2.42,2.42,0,0,0-.814,1.8,6.287,6.287,0,0,0,.562,2.439,6.174,6.174,0,0,1,.623,2.71c-.009.115.17.123.179.008.136-1.651-.986-3.045-1.163-4.647a2.451,2.451,0,0,1,.611-2.069,6.349,6.349,0,0,1,1.735-1.016,4.218,4.218,0,0,0,1.586-1.275,6.374,6.374,0,0,0,.915-1.949,15.528,15.528,0,0,0,.621-4.813,16.289,16.289,0,0,0-1.065-5.429c-.041-.107-.2-.023-.159.083Z" transform="translate(-676.384 -154.841)" fill="#fff"/>
    <path id="Tracé_87" data-name="Tracé 87" d="M817.223,192.825a2.4,2.4,0,0,0,2.6-1.7c.032-.111-.138-.166-.17-.055a2.224,2.224,0,0,1-2.425,1.576C817.116,192.631,817.109,192.81,817.223,192.825Z" transform="translate(-696.25 -181.962)" fill="#fff"/>
    <path id="Tracé_88" data-name="Tracé 88" d="M801.343,207.637a4.628,4.628,0,0,1-.982-3.227c.009-.115-.17-.123-.179-.008a4.814,4.814,0,0,0,1.028,3.356c.072.09.2-.031.132-.121Z" transform="translate(-682.807 -192.504)" fill="#fff"/>
    <path id="Tracé_89" data-name="Tracé 89" d="M813.008,172.555a1.359,1.359,0,0,1-1.18-.52c-.071-.091-.2.03-.132.121a1.523,1.523,0,0,0,1.3.578.093.093,0,0,0,.093-.085.09.09,0,0,0-.086-.094Z" transform="translate(-691.921 -166.908)" fill="#fff"/>
    <path id="Tracé_91" data-name="Tracé 91" d="M748.487,169.151a16.005,16.005,0,0,1,6.327,7.545,6.894,6.894,0,0,1,.525,2.095,3.952,3.952,0,0,1-.434,2.035,8.182,8.182,0,0,0-.8,1.813,2.42,2.42,0,0,0,.436,1.931,6.288,6.288,0,0,0,1.917,1.609,6.178,6.178,0,0,1,2.13,1.789c.062.1.209,0,.148-.1-.886-1.4-2.62-1.838-3.727-3.01a2.451,2.451,0,0,1-.757-2.02,6.343,6.343,0,0,1,.774-1.856,4.217,4.217,0,0,0,.5-1.974,6.365,6.365,0,0,0-.443-2.107,15.526,15.526,0,0,0-2.4-4.217,16.286,16.286,0,0,0-4.119-3.694C748.466,168.928,748.39,169.09,748.487,169.151Z" transform="translate(-641.839 -164.511)" fill="#fff"/>
    <path id="Tracé_92" data-name="Tracé 92" d="M776.866,189.8a2.4,2.4,0,0,0,1.056-2.925c-.041-.108-.21-.05-.169.058a2.223,2.223,0,0,1-.988,2.718C776.665,189.708,776.767,189.856,776.866,189.8Z" transform="translate(-664.238 -178.642)" fill="#fff"/>
    <path id="Tracé_93" data-name="Tracé 93" d="M769.412,216.893a4.628,4.628,0,0,1-2.727-1.985c-.062-.1-.21,0-.148.1a4.814,4.814,0,0,0,2.841,2.06C769.491,217.1,769.523,216.921,769.412,216.893Z" transform="translate(-656.159 -200.859)" fill="#fff"/>
    <path id="Tracé_94" data-name="Tracé 94" d="M757.582,180.741a1.359,1.359,0,0,1-1.255.3c-.111-.03-.144.146-.033.176a1.523,1.523,0,0,0,1.39-.324.093.093,0,0,0,.023-.125.09.09,0,0,0-.125-.023Z" transform="translate(-648.003 -173.817)" fill="#fff"/>
    <path id="Tracé_95" data-name="Tracé 95" d="M49.316,98.633A49.317,49.317,0,0,1,49.316,0,49.812,49.812,0,0,1,57.9.744a.272.272,0,1,1-.1.536A48.815,48.815,0,0,0,.545,49.317a48.772,48.772,0,1,0,84.82-32.851.273.273,0,0,1,.4-.367A49.317,49.317,0,0,1,49.316,98.633Z" transform="translate(82.223 139.148) rotate(-139)" fill="#e4e4e4"/>
    <circle id="Ellipse_15" data-name="Ellipse 15" cx="7.448" cy="7.448" r="7.448" transform="translate(99.95 21.654)" fill="#8cc63f"/>
    <path id="Ellipse_15_-_Contour" data-name="Ellipse 15 - Contour" d="M7.448,0A7.448,7.448,0,1,0,14.9,7.448,7.448,7.448,0,0,0,7.448,0m0-3A10.448,10.448,0,1,1-3,7.448,10.46,10.46,0,0,1,7.448-3Z" transform="translate(99.95 21.654)" fill="#fff"/>
    <path id="Tracé_96" data-name="Tracé 96" d="M773.4,251.495a.828.828,0,0,1-.663-.331l-2.032-2.709a.828.828,0,1,1,1.326-.994l1.329,1.772,3.414-5.121a.828.828,0,1,1,1.379.919l-4.064,6.1a.829.829,0,0,1-.666.369Z" transform="translate(-667.021 -218.517)" fill="#fff"/>
    <path id="Tracé_97" data-name="Tracé 97" d="M538.517,200.134l-11.485-31.952.291-.1-2.112-5.877-.291.1-3.527-9.81a2.965,2.965,0,0,0-3.793-1.787l-20.763,7.463a2.965,2.965,0,0,0-1.787,3.793l2.459,6.84-.46.177,1.57,4.076.368-.142.326.907-.392.151,1.57,4.076.3-.116,11.384,31.67a2.959,2.959,0,0,0,3.793,1.787l20.763-7.463A2.968,2.968,0,0,0,538.517,200.134Z" transform="translate(-441.007 -149.904)" fill="#43493a"/>
    <path id="Tracé_98" data-name="Tracé 98" d="M519.733,214.621a1.424,1.424,0,0,1-1.336-.941l-17.3-48.142a1.421,1.421,0,0,1,.856-1.817l4.418-1.588-.007.155a1.638,1.638,0,0,0,2.19,1.61l9.8-3.524a1.658,1.658,0,0,0,.933-1.172,1.624,1.624,0,0,0-.387-1.422l-.1-.115,4.563-1.64a1.423,1.423,0,0,1,1.818.856l16.51,45.931a3.774,3.774,0,0,1-2.273,4.823l-19.2,6.9A1.422,1.422,0,0,1,519.733,214.621Z" transform="translate(-445.865 -154.187)" fill="#fff"/>
    <circle id="Ellipse_16" data-name="Ellipse 16" cx="5.615" cy="5.615" r="5.615" transform="translate(66.56 15.057)" fill="#8cc63f"/>
    <path id="Tracé_99" data-name="Tracé 99" d="M573.253,282.539l-19.446,6.99a.491.491,0,1,1-.332-.924l19.446-6.99a.491.491,0,1,1,.332.924Z" transform="translate(-487.163 -253.7)" fill="#e6e6e6"/>
    <path id="Tracé_100" data-name="Tracé 100" d="M595.183,303.848l-6.4,2.3a.491.491,0,0,1-.332-.924l6.4-2.3a.491.491,0,1,1,.332.924Z" transform="translate(-514.867 -270.578)" fill="#e6e6e6"/>
    <path id="Tracé_101" data-name="Tracé 101" d="M602.5,324.2l-6.4,2.3a.491.491,0,1,1-.332-.924l6.4-2.3a.491.491,0,0,1,.332.924Z" transform="translate(-520.661 -286.696)" fill="#e6e6e6"/>
    <path id="Tracé_102" data-name="Tracé 102" d="M606.245,334.623l-6.4,2.3a.491.491,0,0,1-.332-.924l6.4-2.3a.491.491,0,0,1,.332.924Z" transform="translate(-523.628 -294.952)" fill="#e6e6e6"/>
    <path id="Tracé_103" data-name="Tracé 103" d="M588.715,307.682l-13.571,4.878a.491.491,0,1,1-.332-.924l13.571-4.878a.491.491,0,1,1,.332.924Z" transform="translate(-504.062 -273.614)" fill="#e6e6e6"/>
    <path id="Tracé_104" data-name="Tracé 104" d="M616.656,357.383l-2.323.835a.835.835,0,1,1-.565-1.572l2.323-.835a.835.835,0,1,1,.565,1.572Z" transform="translate(-534.736 -312.449)" fill="#8cc63f"/>
    <circle id="Ellipse_17" data-name="Ellipse 17" cx="0.323" cy="0.323" r="0.323" transform="translate(63.294 7.455)" fill="#fff"/>
    <path id="Tracé_106" data-name="Tracé 106" d="M354.433,245.16a22.019,22.019,0,0,0-11.373,7.36,9.48,9.48,0,0,0-1.538,2.542,5.438,5.438,0,0,0-.252,2.851,11.254,11.254,0,0,1,.314,2.706,3.33,3.33,0,0,1-1.355,2.362,8.651,8.651,0,0,1-3.171,1.34,8.5,8.5,0,0,0-3.524,1.49c-.121.1-.274-.09-.153-.193,1.731-1.482,4.19-1.356,6.118-2.449a3.372,3.372,0,0,0,1.813-2.349,8.733,8.733,0,0,0-.267-2.754,5.8,5.8,0,0,1,.143-2.8,8.766,8.766,0,0,1,1.435-2.592,21.362,21.362,0,0,1,4.865-4.573,22.408,22.408,0,0,1,6.911-3.19c.153-.041.187.2.035.244Z" transform="translate(-313.066 -224.653)" fill="#fff"/>
    <path id="Tracé_107" data-name="Tracé 107" d="M380.9,259.22a3.3,3.3,0,0,1-.2-4.273c.1-.125.3.02.2.145a3.059,3.059,0,0,0,.2,3.974C381.2,259.181,381,259.334,380.9,259.22Z" transform="translate(-350.028 -232.564)" fill="#fff"/>
    <path id="Tracé_108" data-name="Tracé 108" d="M370.337,299.44a6.367,6.367,0,0,0,4.389-1.507c.121-.1.274.09.153.193a6.623,6.623,0,0,1-4.57,1.559c-.159-.007-.13-.252.028-.245Z" transform="translate(-342.266 -266.624)" fill="#fff"/>
    <path id="Tracé_109" data-name="Tracé 109" d="M410.971,254.666a1.87,1.87,0,0,0,1.531.9c.159.005.13.25-.028.245a2.1,2.1,0,0,1-1.7-.988.127.127,0,0,1,.02-.173A.124.124,0,0,1,410.971,254.666Z" transform="translate(-374.382 -232.342)" fill="#fff"/>
    <path id="Tracé_111" data-name="Tracé 111" d="M361.806,321.272a22.018,22.018,0,0,0-13.512-.971,9.483,9.483,0,0,0-2.758,1.1,5.438,5.438,0,0,0-1.918,2.125,11.255,11.255,0,0,1-1.379,2.35,3.329,3.329,0,0,1-2.5,1.07,8.651,8.651,0,0,1-3.339-.84,8.494,8.494,0,0,0-3.711-.932c-.158.01-.164-.237-.006-.246,2.275-.141,4.162,1.439,6.36,1.728a3.372,3.372,0,0,0,2.862-.784,8.73,8.73,0,0,0,1.445-2.359,5.805,5.805,0,0,1,1.8-2.147,8.768,8.768,0,0,1,2.706-1.205,21.361,21.361,0,0,1,6.637-.722,22.41,22.41,0,0,1,7.438,1.614C362.071,321.115,361.952,321.331,361.806,321.272Z" transform="translate(-312.454 -283.663)" fill="#fff"/>
    <path id="Tracé_112" data-name="Tracé 112" d="M414.986,308.067a3.3,3.3,0,0,1,2.409-3.535c.153-.042.225.194.071.236a3.059,3.059,0,0,0-2.234,3.293c.018.158-.229.163-.246.006Z" transform="translate(-377.719 -271.871)" fill="#fff"/>
    <path id="Tracé_113" data-name="Tracé 113" d="M385.686,336.986a6.367,6.367,0,0,0,4.411,1.439c.158-.009.165.237.006.246a6.623,6.623,0,0,1-4.587-1.507C385.393,337.064,385.564,336.885,385.686,336.986Z" transform="translate(-354.36 -297.555)" fill="#fff"/>
    <path id="Tracé_114" data-name="Tracé 114" d="M448.6,321.022a1.87,1.87,0,0,0,.683,1.638c.124.1-.047.278-.17.179a2.1,2.1,0,0,1-.759-1.81.127.127,0,0,1,.12-.126A.124.124,0,0,1,448.6,321.022Z" transform="translate(-404.153 -284.84)" fill="#fff"/>
    <path id="Tracé_116" data-name="Tracé 116" d="M858.122,634a16,16,0,0,1-9.834.51,6.9,6.9,0,0,1-1.989-.842,3.953,3.953,0,0,1-1.363-1.572,8.183,8.183,0,0,0-.968-1.728,2.421,2.421,0,0,0-1.8-.814,6.287,6.287,0,0,0-2.438.562,6.177,6.177,0,0,1-2.71.623c-.115-.01-.123.169-.008.179,1.651.136,3.045-.986,4.647-1.163a2.451,2.451,0,0,1,2.069.611,6.348,6.348,0,0,1,1.016,1.735,4.217,4.217,0,0,0,1.276,1.586,6.372,6.372,0,0,0,1.949.915,15.529,15.529,0,0,0,4.813.621,16.289,16.289,0,0,0,5.429-1.065c.107-.041.023-.2-.083-.159Z" transform="translate(-711.919 -529.297)" fill="#fff"/>
    <path id="Tracé_117" data-name="Tracé 117" d="M896.439,654.716a2.4,2.4,0,0,0,1.7,2.6c.111.032.166-.138.055-.17a2.223,2.223,0,0,1-1.576-2.425C896.633,654.609,896.454,654.6,896.439,654.716Z" transform="translate(-759.04 -549.163)" fill="#fff"/>
    <path id="Tracé_118" data-name="Tracé 118" d="M875.4,638.836a4.628,4.628,0,0,1,3.227-.982c.115.009.123-.17.008-.179a4.814,4.814,0,0,0-3.356,1.029C875.187,638.776,875.308,638.907,875.4,638.836Z" transform="translate(-742.27 -535.72)" fill="#fff"/>
    <path id="Tracé_119" data-name="Tracé 119" d="M920.9,650.5a1.359,1.359,0,0,1,.52-1.18c.091-.071-.03-.2-.121-.132a1.523,1.523,0,0,0-.578,1.3.093.093,0,0,0,.085.094A.09.09,0,0,0,920.9,650.5Z" transform="translate(-778.281 -544.835)" fill="#fff"/>
    <path id="Tracé_121" data-name="Tracé 121" d="M854.626,585.98a16,16,0,0,1-7.545,6.328,6.893,6.893,0,0,1-2.095.525,3.952,3.952,0,0,1-2.035-.434,8.186,8.186,0,0,0-1.813-.8,2.42,2.42,0,0,0-1.931.436,6.287,6.287,0,0,0-1.609,1.917,6.172,6.172,0,0,1-1.789,2.129c-.1.062,0,.209.1.148,1.4-.886,1.838-2.621,3.01-3.727a2.451,2.451,0,0,1,2.02-.758,6.349,6.349,0,0,1,1.856.774,4.219,4.219,0,0,0,1.974.5,6.37,6.37,0,0,0,2.107-.443,15.526,15.526,0,0,0,4.217-2.4,16.281,16.281,0,0,0,3.693-4.119c.061-.1-.1-.173-.162-.076Z" transform="translate(-711.005 -494.752)" fill="#fff"/>
    <path id="Tracé_122" data-name="Tracé 122" d="M895.046,614.359a2.4,2.4,0,0,0,2.924,1.056c.108-.041.05-.21-.058-.169a2.224,2.224,0,0,1-2.719-.988C895.137,614.158,894.989,614.26,895.046,614.359Z" transform="translate(-757.942 -517.151)" fill="#fff"/>
    <path id="Tracé_123" data-name="Tracé 123" d="M870.963,606.906a4.628,4.628,0,0,1,1.985-2.727c.1-.062,0-.21-.1-.148a4.814,4.814,0,0,0-2.06,2.842C870.758,606.985,870.935,607.017,870.963,606.906Z" transform="translate(-738.736 -509.073)" fill="#fff"/>
    <path id="Tracé_124" data-name="Tracé 124" d="M913.46,595.076a1.359,1.359,0,0,1-.3-1.255c.031-.111-.146-.144-.176-.033a1.523,1.523,0,0,0,.324,1.39.092.092,0,0,0,.125.023A.09.09,0,0,0,913.46,595.076Z" transform="translate(-772.123 -500.917)" fill="#fff"/>
    <path id="Tracé_125" data-name="Tracé 125" d="M675.835,379.172,669.816,389.3l.229.121-2.038,3.864-.424-.225-1.339,2.252.333.191-2.184,3.781-.379-.218L644.374,432.12a3.8,3.8,0,0,1-5.2,1.325L602.66,411.75a3.8,3.8,0,0,1-1.325-5.2L632.8,353.6a3.8,3.8,0,0,1,5.2-1.325l36.511,21.694A3.8,3.8,0,0,1,675.835,379.172Z" transform="translate(-524.905 -309.266)" fill="#43493a"/>
    <path id="Tracé_126" data-name="Tracé 126" d="M649.829,440.585,613.19,418.814a1.172,1.172,0,0,1-.408-1.6l31.67-53.3a1.172,1.172,0,0,1,1.6-.408l36.639,21.771a1.172,1.172,0,0,1,.409,1.6l-31.67,53.3a1.172,1.172,0,0,1-1.6.408Z" transform="translate(-534.263 -318.45)" fill="#fff"/>
    <circle id="Ellipse_18" data-name="Ellipse 18" cx="0.323" cy="0.323" r="0.323" transform="translate(130.294 54.449)" fill="#fff"/>
    <path id="Tracé_127" data-name="Tracé 127" d="M736.243,520.8l-30.585-18.173a.846.846,0,1,1,.864-1.454l30.585,18.173a.846.846,0,0,1-.864,1.454Z" transform="translate(-607.625 -427.523)" fill="#e6e6e6"/>
    <path id="Tracé_128" data-name="Tracé 128" d="M755.685,553.7l-10.06-5.978a.846.846,0,1,1,.864-1.454l10.06,5.978a.846.846,0,1,1-.864,1.454Z" transform="translate(-639.28 -463.241)" fill="#e6e6e6"/>
    <path id="Tracé_129" data-name="Tracé 129" d="M736.667,585.708l-10.06-5.978a.846.846,0,0,1,.864-1.454l10.06,5.978a.846.846,0,1,1-.864,1.454Z" transform="translate(-624.217 -488.591)" fill="#e6e6e6"/>
    <path id="Tracé_130" data-name="Tracé 130" d="M726.926,602.1l-10.06-5.978a.846.846,0,1,1,.864-1.454l10.06,5.977a.846.846,0,1,1-.864,1.454Z" transform="translate(-616.502 -501.576)" fill="#e6e6e6"/>
    <path id="Tracé_131" data-name="Tracé 131" d="M730.466,560.066l-21.344-12.682a.846.846,0,0,1,.864-1.454l21.344,12.682a.846.846,0,1,1-.864,1.454Z" transform="translate(-610.369 -462.972)" fill="#e6e6e6"/>
    <path id="Tracé_132" data-name="Tracé 132" d="M777.174,673.834l-3.653-2.17a1.438,1.438,0,1,1,1.469-2.473l3.653,2.17a1.438,1.438,0,0,1-1.469,2.473Z" transform="translate(-661.144 -560.532)" fill="#8cc63f"/>
    <circle id="Ellipse_19" data-name="Ellipse 19" cx="7.487" cy="7.487" r="7.487" transform="translate(115.357 63.087)" fill="#8cc63f"/>
    <path id="Tracé_133" data-name="Tracé 133" d="M236.3,403.433H337.621v-58.66a1.66,1.66,0,0,0-1.658-1.658H237.956a1.66,1.66,0,0,0-1.658,1.658Z" transform="translate(-236.21 -302.433)" fill="#cacaca"/>
    <rect id="Rectangle_10" data-name="Rectangle 10" width="95.062" height="53.969" transform="translate(3.219 42.975)" fill="#fff"/>
    <path id="Tracé_134" data-name="Tracé 134" d="M235.874,625.5v7.239a2.285,2.285,0,0,0,2.285,2.285h37.4v14.286h-.5a.3.3,0,0,0-.3.3v.994a.3.3,0,0,0,.3.3h23.216a.3.3,0,0,0,.3-.3v-.994a.3.3,0,0,0-.3-.3h-.5V635.026h37.4a2.285,2.285,0,0,0,2.285-2.285V625.5Z" transform="translate(-235.874 -526.089)"/>
    <path id="Tracé_135" data-name="Tracé 135" d="M466.776,432.773H421.758a1.07,1.07,0,1,1,0-2.14h45.018a1.07,1.07,0,1,1,0,2.14Z" transform="translate(-382.251 -371.749)" fill="#e6e6e6"/>
    <path id="Tracé_136" data-name="Tracé 136" d="M509.193,456H494.386a1.07,1.07,0,1,1,0-2.14h14.808a1.07,1.07,0,0,1,0,2.14Z" transform="translate(-439.773 -390.144)" fill="#e6e6e6"/>
    <path id="Tracé_137" data-name="Tracé 137" d="M509.193,503.11H494.386a1.07,1.07,0,1,1,0-2.14h14.808a1.07,1.07,0,0,1,0,2.14Z" transform="translate(-439.773 -427.457)" fill="#e6e6e6"/>
    <path id="Tracé_138" data-name="Tracé 138" d="M509.194,527.24H494.386a1.07,1.07,0,1,1,0-2.14h14.808a1.07,1.07,0,1,1,0,2.14Z" transform="translate(-439.773 -446.569)" fill="#e6e6e6"/>
    <path id="Tracé_139" data-name="Tracé 139" d="M485.873,479.224H454.456a1.07,1.07,0,0,1,0-2.14h31.417a1.07,1.07,0,0,1,0,2.14Z" transform="translate(-408.148 -408.539)" fill="#e6e6e6"/>
    <path id="Tracé_140" data-name="Tracé 140" d="M611.279,570.936H605.9a1.82,1.82,0,0,1,0-3.639h5.377a1.82,1.82,0,0,1,0,3.639Z" transform="translate(-527.503 -479.99)" fill="#8cc63f"/>
    <circle id="Ellipse_20" data-name="Ellipse 20" cx="9.359" cy="9.359" r="9.359" transform="translate(15.993 59.021)" fill="#8cc63f"/>
    <circle id="Ellipse_21" data-name="Ellipse 21" cx="0.353" cy="0.353" r="0.353" transform="translate(50.353 41.123)" fill="#fff"/>
  </g>
</svg>
