<svg id="illustration_personnalise" xmlns="http://www.w3.org/2000/svg" width="156.196" height="126.11" viewBox="0 0 156.196 126.11">
  <g id="illustration_base">
    <path id="Path_80" data-name="Path 80" d="M668.535,124.767H621.649a9.967,9.967,0,0,0-9.724,7.775l-23.69,105.081a8.056,8.056,0,0,0,7.462,9.817l48.2,2.375a10.642,10.642,0,0,0,11-8.735l13.439-74.293,1,.286,2.572-14.081-1.029-.257L674.626,132a6.137,6.137,0,0,0-6.089-7.229Z" transform="translate(-518.529 -124.766)"/>
    <path id="Path_81" data-name="Path 81" d="M647.289,136.395h-5.473a6.888,6.888,0,0,0-6.73,5.42l-22.74,104.224c-.265,1.214-.631,3.127.117,4.12a4.268,4.268,0,0,0,3.131,1.692l48.686,2.506a5.528,5.528,0,0,0,5.8-4.536l19.4-107.725a4.842,4.842,0,0,0-4.765-5.7H679.53a2.285,2.285,0,0,0-2.206,1.691h0a2.017,2.017,0,0,1-1.949,1.493H650.728a3.449,3.449,0,0,1-3.439-3.184Z" transform="translate(-537.997 -134.129)" fill="#fff"/>
    <path id="Path_93" data-name="Path 93" d="M719.408,262.454a.39.39,0,0,0,.4-.319L730.429,203.5a.393.393,0,0,0-.081-.318.382.382,0,0,0-.292-.142l-48.336-.571h0a.388.388,0,0,0-.375.3L668.814,259.5a.394.394,0,0,0,.07.321.383.383,0,0,0,.287.153Z" transform="translate(-583.557 -187.326)" fill="#e6e6e6"/>
    <path id="Path_94" data-name="Path 94" d="M710.554,529.535a.2.2,0,0,0-.19.15l-.453,1.94a.195.195,0,0,0,.175.239l25.571,1.817a.2.2,0,0,0,.205-.157l.435-2.245a.195.195,0,0,0-.179-.232l-25.553-1.513Z" transform="translate(-616.65 -450.616)" fill="#e6e6e6"/>
    <path id="Path_95" data-name="Path 95" d="M736.9,567.468a.2.2,0,0,0,.2-.148l.554-2.249a.2.2,0,0,0-.175-.241l-32.656-2.284a.192.192,0,0,0-.2.139l-.576,1.944a.195.195,0,0,0,.171.249Z" transform="translate(-611.932 -477.197)" fill="#e6e6e6"/>
    <path id="Path_96" data-name="Path 96" d="M727.9,604.468a.194.194,0,0,0,.2-.148l.554-2.249a.195.195,0,0,0-.175-.241l-32.656-2.284a.192.192,0,0,0-.2.139l-.576,1.944a.195.195,0,0,0,.171.249Z" transform="translate(-604.686 -506.987)" fill="#e6e6e6"/>
    <path id="Path_79" data-name="Path 79" d="M233.7,737.306c0,1.631-14.927,1.8-33.3,2.953-18.356,1.147-33.3-1.322-33.3-2.953s15.013-4.912,33.3-2.953C218.77,736.321,233.7,735.675,233.7,737.306Z" transform="translate(-167.099 -614.442)" fill="#e6e6e6"/>
    <path id="Path_97" data-name="Path 97" d="M20.058,6.762a.193.193,0,0,0,.207-.147l1.172-4.687a.195.195,0,0,0-.173-.242L1.211,0A.2.2,0,0,0,1,.152L0,4.65a.195.195,0,0,0,.172.236Z" transform="matrix(1, -0.017, 0.017, 1, 88.062, 103.232)" fill="#e6e6e6"/>
    <path id="Path_111" data-name="Path 111" d="M301.428,482.44a2.093,2.093,0,0,0,.308-3.2l.812-18.125-4.134.464.24,17.729a2.1,2.1,0,0,0,2.774,3.127Z" transform="translate(-274.224 -391.731)" fill="#a0616a"/>
    <path id="Path_112" data-name="Path 112" d="M69.534,537.467l2.353.414L74.212,529l-3.083-.61Z" transform="translate(-34.788 -416.076)" fill="#a0616a"/>
    <path id="Path_113" data-name="Path 113" d="M0,0H7.508V2.9H2.9A2.9,2.9,0,0,1,0,0Z" transform="translate(41.253 124.787) rotate(-170.029)"/>
    <path id="Path_114" data-name="Path 114" d="M36.39,542.936h2.389l1.136-9.214H36.39Z" transform="translate(-8.103 -420.368)" fill="#a0616a"/>
    <path id="Path_115" data-name="Path 115" d="M0,0H7.508V2.9H2.9A2.9,2.9,0,0,1,0,0H0Z" transform="translate(35.283 124.787) rotate(179.997)"/>
    <path id="Path_116" data-name="Path 116" d="M328.531,588.649a.9.9,0,0,1-.112-.007l-2.812-.231a.951.951,0,0,1-.827-1.1l2.791-13.773-1.754-9.251a.317.317,0,0,0-.627.031l-2.584,23.505a.959.959,0,0,1-1.015.865l-2.649-.1a.952.952,0,0,1-.884-.9l.212-28.4L332,557.564l.959,14.817,0,.016-3.506,15.525a.952.952,0,0,1-.923.727Z" transform="translate(-290.276 -469.383)"/>
    <ellipse id="Ellipse_16" data-name="Ellipse 16" cx="4.786" cy="4.786" rx="4.786" ry="4.786" transform="translate(27.737 48.071)" fill="#a0616a"/>
    <path id="Path_117" data-name="Path 117" d="M315.06,442.719a3.918,3.918,0,0,1-2.116-.605,7.429,7.429,0,0,0-6.315-.4.951.951,0,0,1-.822-.094.937.937,0,0,1-.433-.692L302.9,418.786a7.758,7.758,0,0,1,5.313-8.293h0q.2-.062.4-.117a7.71,7.71,0,0,1,6.425,1.115,7.834,7.834,0,0,1,3.345,5.72l2.087,22.289a.937.937,0,0,1-.3.781C319.437,440.957,317.313,442.718,315.06,442.719Z" transform="translate(-278.028 -350.659)" fill="#8cc63f"/>
    <path id="Path_118" data-name="Path 118" d="M299.581,436.956l-5.592-.615a1.114,1.114,0,0,1-.956-1.39l1.424-5.426a3.094,3.094,0,1,1,6.149.694l.211,5.588a1.114,1.114,0,0,1-1.235,1.15Z" transform="translate(-270.098 -364.081)" fill="#8cc63f"/>
    <path id="Path_119" data-name="Path 119" d="M370.4,478.544a2.093,2.093,0,0,0-.079-3.209l-1.378-18.091-4.051.912,2.377,17.618a2.1,2.1,0,0,0,3.13,2.77Z" transform="translate(-327.98 -388.611)" fill="#a0616a"/>
    <path id="Path_120" data-name="Path 120" d="M355.452,432.326a1.113,1.113,0,0,1-.354-.857l.211-5.588a3.094,3.094,0,1,1,6.149-.694l1.424,5.426a1.114,1.114,0,0,1-.956,1.39l-5.592.615a1.113,1.113,0,0,1-.881-.292Z" transform="translate(-320.097 -360.589)" fill="#8cc63f"/>
    <path id="Path_121" data-name="Path 121" d="M317.393,354.933a1.111,1.111,0,0,1-.253-.029l-.024-.006c-4.208-.643-5.138-3.081-5.342-4.1a2.541,2.541,0,0,1,.573-2.466,3.034,3.034,0,0,1,.142-2.467,4,4,0,0,1,2.358-1.688,2.921,2.921,0,0,1,2.85-.172c2.284-.845,3.157-.142,3.314.015,1.021.183,1.643.578,1.849,1.172.388,1.117-.839,2.506-.891,2.565l-.027.03-1.828.087a1.239,1.239,0,0,0-1.165,1.426h0a5.788,5.788,0,0,0,.187.654c.312.975.546,1.809.244,2.126a.489.489,0,0,1-.512.089c-.286-.076-.48-.06-.576.048-.15.167-.1.591.129,1.194a1.118,1.118,0,0,1-.2,1.139,1.085,1.085,0,0,1-.823.383Z" transform="translate(-285.154 -297.109)"/>
  </g>
  <path id="votre_logo" data-name="votrelogo" d="M27.267,12.184l-.491-3.991a3.114,3.114,0,0,0-.09-.49.927.927,0,0,0-.17-.342.677.677,0,0,0-.3-.2,1.567,1.567,0,0,0-.488-.075,2.085,2.085,0,0,0-.436.032,1.107,1.107,0,0,0-.341.12.743.743,0,0,0-.24.214.841.841,0,0,0-.135.313,1.06,1.06,0,0,0-.023.166,1.252,1.252,0,0,0,0,.161c0,.053.01.106.018.159s.018.106.028.16L25.5,13.94a4.206,4.206,0,0,0,.088.426.913.913,0,0,0,.156.327.682.682,0,0,0,.307.214,1.7,1.7,0,0,0,.542.087,1.9,1.9,0,0,0,.523-.047,1.063,1.063,0,0,0,.378-.178,1.562,1.562,0,0,0,.3-.311c.1-.126.193-.275.3-.447l3.43-5.47c.039-.065.076-.126.109-.183s.063-.112.089-.165a1.621,1.621,0,0,0,.068-.154,1.088,1.088,0,0,0,.045-.151.637.637,0,0,0,0-.292.405.405,0,0,0-.133-.213.692.692,0,0,0-.273-.133,1.766,1.766,0,0,0-.415-.052,1.851,1.851,0,0,0-.574.066,1.168,1.168,0,0,0-.4.211,1.6,1.6,0,0,0-.3.33c-.09.127-.173.27-.26.423Zm4.238-1.023a4.566,4.566,0,0,0-.079,1.618,3,3,0,0,0,.5,1.3,2.679,2.679,0,0,0,1.04.879,3.763,3.763,0,0,0,1.551.35,4.691,4.691,0,0,0,1.694-.261,4.615,4.615,0,0,0,1.429-.815,4.916,4.916,0,0,0,1.073-1.266,5.35,5.35,0,0,0,.627-1.614,4.553,4.553,0,0,0,.073-1.625,3,3,0,0,0-.506-1.3,2.682,2.682,0,0,0-1.048-.871A3.778,3.778,0,0,0,36.3,7.218a4.7,4.7,0,0,0-1.686.268A4.618,4.618,0,0,0,33.2,8.3a4.916,4.916,0,0,0-1.065,1.258A5.354,5.354,0,0,0,31.505,11.16Zm2.067.051a3.45,3.45,0,0,1,.327-.91,2.483,2.483,0,0,1,.516-.668,2.053,2.053,0,0,1,.67-.408,2.128,2.128,0,0,1,.789-.127,1.724,1.724,0,0,1,.727.163,1.206,1.206,0,0,1,.49.435,1.56,1.56,0,0,1,.225.688,2.953,2.953,0,0,1-.066.919,3.449,3.449,0,0,1-.327.913,2.483,2.483,0,0,1-.517.671,2.051,2.051,0,0,1-.672.408,2.125,2.125,0,0,1-.791.126,1.721,1.721,0,0,1-.727-.165,1.206,1.206,0,0,1-.488-.438,1.565,1.565,0,0,1-.223-.688A2.959,2.959,0,0,1,33.572,11.211ZM44.179,9.557l.982.023c.091,0,.176,0,.255,0a2.015,2.015,0,0,0,.221-.012,1.008,1.008,0,0,0,.2-.042.809.809,0,0,0,.183-.087.8.8,0,0,0,.163-.127.912.912,0,0,0,.134-.176,1.33,1.33,0,0,0,.107-.231,2.216,2.216,0,0,0,.081-.293,2.061,2.061,0,0,0,.042-.294,1.029,1.029,0,0,0-.009-.233.575.575,0,0,0-.059-.18.459.459,0,0,0-.108-.133.5.5,0,0,0-.145-.094.775.775,0,0,0-.178-.051,1.845,1.845,0,0,0-.214-.022c-.078,0-.162-.006-.253-.008l-4.033-.089c-.091,0-.175,0-.253,0a2,2,0,0,0-.22.012,1,1,0,0,0-.2.042.806.806,0,0,0-.182.087.8.8,0,0,0-.162.127.913.913,0,0,0-.133.175,1.331,1.331,0,0,0-.107.23,2.218,2.218,0,0,0-.081.291,2.063,2.063,0,0,0-.043.292A1.029,1.029,0,0,0,40.178,9a.574.574,0,0,0,.058.179.455.455,0,0,0,.106.133.5.5,0,0,0,.144.094.765.765,0,0,0,.176.051,1.823,1.823,0,0,0,.213.022c.077,0,.161.006.252.008l.978.023-1,4.683c-.021.1-.04.186-.055.269a2.167,2.167,0,0,0-.032.231.907.907,0,0,0,.005.2.568.568,0,0,0,.055.176.522.522,0,0,0,.11.147.6.6,0,0,0,.166.107,1.01,1.01,0,0,0,.23.068,2.005,2.005,0,0,0,.3.029,2.161,2.161,0,0,0,.312-.012,1.316,1.316,0,0,0,.256-.055.949.949,0,0,0,.21-.1.9.9,0,0,0,.171-.139.887.887,0,0,0,.129-.171,1.154,1.154,0,0,0,.09-.2,2.348,2.348,0,0,0,.066-.23c.02-.083.039-.172.06-.269ZM48.7,12.746l.6.015.017.057c.011.037.027.089.047.152s.044.137.072.217.059.165.093.252l.532,1.287a3.339,3.339,0,0,0,.184.391,1.185,1.185,0,0,0,.229.3.919.919,0,0,0,.328.19,1.622,1.622,0,0,0,.479.076,1.765,1.765,0,0,0,.627-.083.891.891,0,0,0,.389-.25.624.624,0,0,0,.153-.355.751.751,0,0,0-.081-.4l-1.133-2.27a3.169,3.169,0,0,0,.588-.38,2.937,2.937,0,0,0,.474-.49,2.987,2.987,0,0,0,.351-.591,3.326,3.326,0,0,0,.22-.685,2.856,2.856,0,0,0,.064-.724,1.89,1.89,0,0,0-.126-.6,1.591,1.591,0,0,0-.3-.484A1.833,1.833,0,0,0,52.048,8a2.578,2.578,0,0,0-.454-.2,3.426,3.426,0,0,0-.48-.121c-.162-.029-.326-.049-.489-.062s-.325-.02-.483-.023c-.193,0-.369,0-.531,0s-.309.014-.443.027-.255.03-.365.049-.208.043-.3.068a1.528,1.528,0,0,0-.472.218,1.065,1.065,0,0,0-.281.293,1.347,1.347,0,0,0-.151.332c-.035.113-.059.227-.082.336l-1.139,5.414c-.02.1-.039.187-.054.27a2.338,2.338,0,0,0-.032.232.975.975,0,0,0,0,.2.594.594,0,0,0,.05.177.5.5,0,0,0,.1.147.556.556,0,0,0,.157.108.927.927,0,0,0,.22.068,1.833,1.833,0,0,0,.29.029,1.981,1.981,0,0,0,.3-.012,1.217,1.217,0,0,0,.246-.055.889.889,0,0,0,.2-.1.856.856,0,0,0,.163-.14.9.9,0,0,0,.123-.172,1.219,1.219,0,0,0,.086-.2c.024-.071.045-.148.065-.231s.039-.173.059-.27Zm.691-3.3.037,0,.1-.01c.043,0,.093-.007.149-.009s.117,0,.18,0a1.853,1.853,0,0,1,.408.049.8.8,0,0,1,.3.141.485.485,0,0,1,.169.252.8.8,0,0,1,0,.383,1.061,1.061,0,0,1-.14.355.911.911,0,0,1-.266.271,1.225,1.225,0,0,1-.405.169,2.216,2.216,0,0,1-.558.05l-.118,0-.1-.007-.072-.006-.027,0Zm7.392.27,1.536.036c.093,0,.179,0,.259,0a2.233,2.233,0,0,0,.225-.011,1.093,1.093,0,0,0,.2-.039.835.835,0,0,0,.185-.081.852.852,0,0,0,.3-.289,1.154,1.154,0,0,0,.1-.214,1.858,1.858,0,0,0,.075-.271,1.8,1.8,0,0,0,.037-.278.9.9,0,0,0-.014-.22.543.543,0,0,0-.064-.17.5.5,0,0,0-.112-.13.539.539,0,0,0-.15-.088.863.863,0,0,0-.182-.048,2.063,2.063,0,0,0-.218-.021c-.079,0-.165-.006-.258-.008L56.15,7.834a1.707,1.707,0,0,0-.469.045.857.857,0,0,0-.342.172.936.936,0,0,0-.236.316,2.056,2.056,0,0,0-.152.478l-1.2,5.8a1.843,1.843,0,0,0-.047.483.61.61,0,0,0,.1.326.538.538,0,0,0,.269.188,1.489,1.489,0,0,0,.447.068l2.773.077c.093,0,.18,0,.26,0a2.226,2.226,0,0,0,.226-.01,1.088,1.088,0,0,0,.2-.038.831.831,0,0,0,.185-.08.85.85,0,0,0,.3-.289,1.159,1.159,0,0,0,.1-.215,1.872,1.872,0,0,0,.076-.272,1.82,1.82,0,0,0,.038-.28.91.91,0,0,0-.014-.221.55.55,0,0,0-.064-.172.509.509,0,0,0-.112-.131.543.543,0,0,0-.15-.089.864.864,0,0,0-.183-.049,2.061,2.061,0,0,0-.219-.022c-.079,0-.166-.007-.259-.009l-1.748-.046.27-1.307,1.095.028c.093,0,.179,0,.259,0a2.226,2.226,0,0,0,.225-.01,1.09,1.09,0,0,0,.2-.039.833.833,0,0,0,.185-.081.851.851,0,0,0,.3-.289,1.157,1.157,0,0,0,.1-.214,1.865,1.865,0,0,0,.075-.271,1.811,1.811,0,0,0,.038-.279.9.9,0,0,0-.014-.22.546.546,0,0,0-.064-.171.506.506,0,0,0-.112-.131.54.54,0,0,0-.15-.089.863.863,0,0,0-.182-.048,2.059,2.059,0,0,0-.219-.021c-.079,0-.165-.006-.258-.009l-1.094-.026Zm-30.915,17.2L26.9,22.2c.021-.1.04-.186.056-.268a2.2,2.2,0,0,0,.033-.23.918.918,0,0,0,0-.2.571.571,0,0,0-.053-.176.517.517,0,0,0-.107-.147.582.582,0,0,0-.162-.108A.978.978,0,0,0,26.44,21a1.937,1.937,0,0,0-.3-.03,2.089,2.089,0,0,0-.306.011,1.276,1.276,0,0,0-.252.053.928.928,0,0,0-.206.1.9.9,0,0,0-.3.308,1.165,1.165,0,0,0-.09.2,2.382,2.382,0,0,0-.067.229c-.02.082-.04.171-.061.268L23.623,27.8a1.889,1.889,0,0,0-.053.48.615.615,0,0,0,.095.325.515.515,0,0,0,.256.189,1.394,1.394,0,0,0,.43.072l2.664.1c.09,0,.173.007.251.007a1.936,1.936,0,0,0,.218-.009.97.97,0,0,0,.2-.04.91.91,0,0,0,.343-.211.914.914,0,0,0,.134-.175,1.353,1.353,0,0,0,.108-.231,2.274,2.274,0,0,0,.083-.294,2.125,2.125,0,0,0,.045-.3,1.064,1.064,0,0,0-.006-.236.593.593,0,0,0-.056-.182.463.463,0,0,0-.1-.136.5.5,0,0,0-.142-.1.752.752,0,0,0-.175-.054,1.778,1.778,0,0,0-.211-.025c-.077-.005-.16-.008-.25-.012Zm3.3-1.836a4.673,4.673,0,0,0-.082,1.642,3.093,3.093,0,0,0,.5,1.326,2.734,2.734,0,0,0,1.044.9,3.772,3.772,0,0,0,1.558.371,4.653,4.653,0,0,0,1.7-.247,4.574,4.574,0,0,0,1.437-.812,4.913,4.913,0,0,0,1.08-1.274,5.413,5.413,0,0,0,.632-1.631,4.66,4.66,0,0,0,.075-1.648,3.083,3.083,0,0,0-.507-1.325,2.736,2.736,0,0,0-1.052-.9A3.786,3.786,0,0,0,34,21.13a4.665,4.665,0,0,0-1.695.255,4.578,4.578,0,0,0-1.426.811,4.913,4.913,0,0,0-1.072,1.266A5.418,5.418,0,0,0,29.175,25.081Zm2.077.073a3.494,3.494,0,0,1,.33-.921,2.486,2.486,0,0,1,.519-.673,2.036,2.036,0,0,1,.673-.407,2.111,2.111,0,0,1,.793-.121,1.728,1.728,0,0,1,.731.172,1.231,1.231,0,0,1,.492.447,1.607,1.607,0,0,1,.225.7,3.021,3.021,0,0,1-.068.932,3.494,3.494,0,0,1-.33.924,2.486,2.486,0,0,1-.521.675,2.034,2.034,0,0,1-.676.407,2.108,2.108,0,0,1-.795.119,1.726,1.726,0,0,1-.73-.175,1.232,1.232,0,0,1-.49-.449,1.611,1.611,0,0,1-.223-.7A3.026,3.026,0,0,1,31.252,25.154ZM44.243,27.1c.021-.1.04-.189.055-.273a2.21,2.21,0,0,0,.031-.234.927.927,0,0,0-.006-.2.584.584,0,0,0-.056-.179.537.537,0,0,0-.111-.15.61.61,0,0,0-.168-.11,1.024,1.024,0,0,0-.232-.071,2.018,2.018,0,0,0-.306-.032,2.166,2.166,0,0,0-.314.01,1.313,1.313,0,0,0-.258.053.944.944,0,0,0-.211.1.9.9,0,0,0-.172.14.887.887,0,0,0-.13.172,1.162,1.162,0,0,0-.09.2,2.378,2.378,0,0,0-.067.233c-.02.084-.039.174-.06.272l-.119.564-.053.015c-.034.009-.084.021-.147.033s-.138.023-.222.03a2.276,2.276,0,0,1-.279.007,1.751,1.751,0,0,1-.681-.154,1.266,1.266,0,0,1-.5-.414,1.5,1.5,0,0,1-.255-.682,2.824,2.824,0,0,1,.056-.959,3.217,3.217,0,0,1,.355-.955,2.229,2.229,0,0,1,.54-.634,2,2,0,0,1,.659-.346,2.175,2.175,0,0,1,.711-.092,2.139,2.139,0,0,1,.277.027,2.021,2.021,0,0,1,.252.058,2.277,2.277,0,0,1,.236.086c.077.033.152.069.228.109l.181.095c.058.03.115.057.172.081a1.2,1.2,0,0,0,.17.057.842.842,0,0,0,.176.025.763.763,0,0,0,.4-.1,1.2,1.2,0,0,0,.326-.276,1.769,1.769,0,0,0,.236-.365,1.615,1.615,0,0,0,.13-.367.933.933,0,0,0,.018-.294.715.715,0,0,0-.072-.246.843.843,0,0,0-.15-.207,1.36,1.36,0,0,0-.215-.177,2.344,2.344,0,0,0-.393-.206,3.459,3.459,0,0,0-.46-.153,4.44,4.44,0,0,0-.5-.1,4.88,4.88,0,0,0-.517-.044,4.954,4.954,0,0,0-1.521.188,4.64,4.64,0,0,0-1.434.692,4.54,4.54,0,0,0-1.172,1.242,5.514,5.514,0,0,0-.737,1.843,4.686,4.686,0,0,0-.069,1.785,2.84,2.84,0,0,0,.572,1.3,2.81,2.81,0,0,0,1.09.815,4.117,4.117,0,0,0,1.483.316,5.579,5.579,0,0,0,.558-.007c.187-.012.373-.032.553-.06s.356-.063.522-.105a4.345,4.345,0,0,0,.464-.144,2.4,2.4,0,0,0,.444-.213,1.154,1.154,0,0,0,.285-.248,1.116,1.116,0,0,0,.173-.305,2.489,2.489,0,0,0,.108-.386Zm1.163-1.443a4.673,4.673,0,0,0-.068,1.662,3.141,3.141,0,0,0,.522,1.343,2.831,2.831,0,0,0,1.077.915,3.925,3.925,0,0,0,1.6.377,4.8,4.8,0,0,0,1.741-.25,4.639,4.639,0,0,0,1.463-.822,4.917,4.917,0,0,0,1.093-1.29,5.39,5.39,0,0,0,.632-1.651,4.66,4.66,0,0,0,.061-1.669,3.132,3.132,0,0,0-.532-1.342,2.833,2.833,0,0,0-1.086-.907,3.939,3.939,0,0,0-1.6-.365,4.805,4.805,0,0,0-1.733.257,4.643,4.643,0,0,0-1.452.821,4.917,4.917,0,0,0-1.086,1.281A5.394,5.394,0,0,0,45.406,25.652Zm2.127.075a3.478,3.478,0,0,1,.329-.932,2.485,2.485,0,0,1,.525-.681,2.062,2.062,0,0,1,.686-.412,2.174,2.174,0,0,1,.811-.122,1.8,1.8,0,0,1,.75.175,1.274,1.274,0,0,1,.508.453,1.628,1.628,0,0,1,.238.709,3.019,3.019,0,0,1-.06.944,3.478,3.478,0,0,1-.329.935,2.485,2.485,0,0,1-.527.684,2.06,2.06,0,0,1-.688.412,2.171,2.171,0,0,1-.813.12,1.8,1.8,0,0,1-.75-.178,1.275,1.275,0,0,1-.506-.455,1.632,1.632,0,0,1-.235-.71A3.024,3.024,0,0,1,47.534,25.727Z" transform="translate(75.627 24.75)" fill="#3a7700"/>
</svg>
