<svg id="illustration_ios_android" xmlns="http://www.w3.org/2000/svg" width="197.228" height="91.734" viewBox="0 0 197.228 91.734">
  <path id="Tracé_169" data-name="Tracé 169" d="M351.507,790.175c-4.518,4.422,49.741,8.384,99,7.8s93.171-3.379,97.689-7.8-48.425-5.834-97.689-5.251S356.024,785.753,351.507,790.175Z" transform="translate(-351.243 -706.299)" fill="#e6e6e6"/>
  <path id="appstore" d="M2.878,41.033Q2.79,42.565,2.79,44.1a48.179,48.179,0,0,0,1.7,12.257,53.944,53.944,0,0,0,7.065,15.661Q19.134,83.59,26.2,83.677a17.619,17.619,0,0,0,6.639-1.787A20.063,20.063,0,0,1,40.922,80.1h.34a18.944,18.944,0,0,1,7.746,1.7,16.306,16.306,0,0,0,6.472,1.873,11.406,11.406,0,0,0,7.746-3.49,53.214,53.214,0,0,0,7.232-8.852,86.114,86.114,0,0,0,5.533-10.3,18.725,18.725,0,0,1-7.235-4.852,17.441,17.441,0,0,1-4.086-7.235,19.5,19.5,0,0,1-.763-5.958V40.948a16.082,16.082,0,0,1,2.849-7.788,19,19,0,0,1,6.684-6,23.866,23.866,0,0,0-7.578-6.384,18.567,18.567,0,0,0-8.767-2.3,25.834,25.834,0,0,0-8.98,1.83,23.476,23.476,0,0,1-7.275,1.83,25.75,25.75,0,0,1-7.7-1.83,26.789,26.789,0,0,0-8.639-1.83,18.913,18.913,0,0,0-9.746,2.851,24.208,24.208,0,0,0-11.874,19.7ZM38.2,19.073a13,13,0,0,1-.258-2.554q0-5.534,4.511-10.98A19.508,19.508,0,0,1,48.373.773,17.546,17.546,0,0,1,55.392-1.44a19.151,19.151,0,0,1,.17,2.554,17.831,17.831,0,0,1-4.256,11.235,18.057,18.057,0,0,1-5.958,4.937,13.6,13.6,0,0,1-6.812,1.787Z" transform="translate(103.33 1.44)"/>
  <path id="android" d="M472.387,366.208v22.017a5.209,5.209,0,0,1-5.227,5.266c-2.908,0-5.73-2.356-5.73-5.266V366.208c0-2.871,2.814-5.227,5.73-5.227a5.248,5.248,0,0,1,5.227,5.227Zm2.054,29.84a5.613,5.613,0,0,0,5.625,5.625h3.782l.057,11.615c0,7.012,10.493,6.958,10.493,0V401.676h7.069v11.615c0,6.976,10.556,6.994,10.556,0V401.676h3.839a5.607,5.607,0,0,0,5.589-5.625V361.94h-47.01Zm47.137-35.942H474.227c0-8.143,4.865-15.207,12.088-18.892L482.7,334.5c-.531-.932.817-1.508,1.273-.721l3.688,6.768a25.679,25.679,0,0,1,20.584,0l3.667-6.747a.732.732,0,1,1,1.273.721l-3.619,6.69C516.713,344.9,521.578,351.972,521.578,360.106ZM489.132,349.55a1.951,1.951,0,1,0,0,.006Zm21.555,0a1.994,1.994,0,1,0,0,.006ZM528.7,360.975a5.212,5.212,0,0,0-5.227,5.227v22.017a5.245,5.245,0,0,0,5.227,5.266c2.929,0,5.73-2.355,5.73-5.266V366.2c-.009-2.919-2.823-5.221-5.73-5.221Z" transform="translate(-443.523 -333.413)" fill="#8cc63f"/>
</svg>
