<svg xmlns="http://www.w3.org/2000/svg" xmlns:xlink="http://www.w3.org/1999/xlink" width="887.001" height="887.001" viewBox="0 0 887.001 887.001">
  <defs>
    <filter id="forme_smartphone" x="0" y="0" width="887.001" height="887.001" filterUnits="userSpaceOnUse">
      <feOffset input="SourceAlpha"/>
      <feGaussianBlur stdDeviation="23" result="blur"/>
      <feFlood flood-opacity="0.529"/>
      <feComposite operator="in" in2="blur"/>
      <feComposite in="SourceGraphic"/>
    </filter>
    <filter id="Tracé_217" x="35.841" y="52.841" width="821.319" height="821.319" filterUnits="userSpaceOnUse">
      <feOffset dx="3" dy="20" input="SourceAlpha"/>
      <feGaussianBlur stdDeviation="20" result="blur-2"/>
      <feFlood flood-opacity="0.6"/>
      <feComposite operator="in" in2="blur-2"/>
      <feComposite in="SourceGraphic"/>
    </filter>
    <filter id="Icon_awesome-map-marker-alt" x="464.777" y="126.823" width="181.108" height="216.477" filterUnits="userSpaceOnUse">
      <feOffset dx="5" input="SourceAlpha"/>
      <feGaussianBlur stdDeviation="12.5" result="blur-3"/>
      <feFlood flood-opacity="0.239"/>
      <feComposite operator="in" in2="blur-3"/>
      <feComposite in="SourceGraphic"/>
    </filter>
    <filter id="Icon_store" x="284.629" y="341.467" width="429.708" height="248.739" filterUnits="userSpaceOnUse">
      <feOffset dx="5" input="SourceAlpha"/>
      <feGaussianBlur stdDeviation="12.5" result="blur-4"/>
      <feFlood flood-opacity="0.239"/>
      <feComposite operator="in" in2="blur-4"/>
      <feComposite in="SourceGraphic"/>
    </filter>
    <filter id="Icon_store2" x="253.282" y="214.272" width="497.99" height="229.374" filterUnits="userSpaceOnUse">
      <feOffset dx="5" input="SourceAlpha"/>
      <feGaussianBlur stdDeviation="12.5" result="blur-5"/>
      <feFlood flood-opacity="0.239"/>
      <feComposite operator="in" in2="blur-5"/>
      <feComposite in="SourceGraphic"/>
    </filter>
  </defs>
  <g id="illustration_marketplace" transform="translate(69 69)">
    <g id="smartphone" transform="translate(0 0)">
      <g transform="matrix(1, 0, 0, 1, -69, -69)" filter="url(#forme_smartphone)">
        <path id="forme_smartphone-2" data-name="forme_smartphone" d="M287.311,706.4H61.647a61.429,61.429,0,0,1-34.467-10.51A61.735,61.735,0,0,1,4.845,668.816,61.064,61.064,0,0,1,0,644.861V61.539A61.182,61.182,0,0,1,10.529,27.132a61.816,61.816,0,0,1,27.123-22.3A61.355,61.355,0,0,1,61.647,0H287.311a61.432,61.432,0,0,1,34.468,10.51,61.73,61.73,0,0,1,22.335,27.075,61.063,61.063,0,0,1,4.844,23.954V167.867h3.888v75.686h-3.888V644.861a61.182,61.182,0,0,1-10.528,34.408,61.812,61.812,0,0,1-27.123,22.3A61.354,61.354,0,0,1,287.311,706.4ZM63.048,16.011A46.049,46.049,0,0,0,17.011,61.967V644.434A46.049,46.049,0,0,0,63.048,690.39H289.8a46.049,46.049,0,0,0,46.038-45.957V61.967A46.049,46.049,0,0,0,289.8,16.011H260.341a21.838,21.838,0,0,1-20.251,30.08H110.811A21.837,21.837,0,0,1,90.56,16.011Z" transform="translate(568.5 69) rotate(45)"/>
      </g>
      <g transform="matrix(1, 0, 0, 1, -69, -69)" filter="url(#Tracé_217)">
        <path id="Tracé_217-2" data-name="Tracé 217" d="M272.083,0H242.7a21.816,21.816,0,0,1-20.2,30.055H93.558A21.816,21.816,0,0,1,73.36,0H45.918A45.918,45.918,0,0,0,0,45.919V627.9a45.918,45.918,0,0,0,45.918,45.919H272.083A45.919,45.919,0,0,0,318,627.9h0V45.918A45.918,45.918,0,0,0,272.084,0Z" transform="translate(569.3 92.84) rotate(45)" fill="#f5ffe8"/>
      </g>
    </g>
    <g id="illustration_marketplace-2" data-name="illustration_marketplace" transform="translate(167.539 95.323)">
      <g id="store" transform="translate(49.242)">
        <g transform="matrix(1, 0, 0, 1, -285.78, -164.32)" filter="url(#Icon_awesome-map-marker-alt)">
          <path id="Icon_awesome-map-marker-alt-2" data-name="Icon awesome-map-marker-alt" d="M47.6,138.623C7.452,80.418,0,74.445,0,53.054a53.054,53.054,0,1,1,106.108,0c0,21.391-7.452,27.364-47.6,85.569a6.635,6.635,0,0,1-10.9,0ZM53.054,75.16A22.106,22.106,0,1,0,30.948,53.054,22.106,22.106,0,0,0,53.054,75.16Z" transform="translate(497.28 164.32)" fill="#3a7700"/>
        </g>
        <g transform="matrix(1, 0, 0, 1, -285.78, -164.32)" filter="url(#Icon_store)">
          <path id="Icon_store-2" data-name="Icon_store" d="M218.765,163.206H57.787V66.684H19.041V221.119a19.318,19.318,0,0,0,19.373,19.3H238.138a19.318,19.318,0,0,0,19.373-19.3V66.684H218.765ZM335,167.27l38.746-39.414V66.684H335Z" transform="translate(298.09 312.28)" fill="#3a7700"/>
        </g>
        <g transform="matrix(1, 0, 0, 1, -285.78, -164.32)" filter="url(#Icon_store2)">
          <path id="Icon_store2-2" data-name="Icon_store2" d="M413.391,71.547l-44.57-62.5C364.837,3.439,357.764,0,350.21,0H72.761C65.207,0,58.133,3.439,54.15,9.049L9.58,71.547c-23.006,32.274-2.61,77.157,40.381,82.285a81.112,81.112,0,0,0,9.409.543c20.328,0,38.321-7.842,50.682-19.968,12.362,12.126,30.423,19.968,50.682,19.968,20.328,0,38.321-7.842,50.682-19.968,12.362,12.126,30.423,19.968,50.682,19.968,20.328,0,38.321-7.842,50.682-19.968,12.43,12.126,30.423,19.968,50.682,19.968a80.233,80.233,0,0,0,9.409-.543C416,148.764,436.466,103.882,413.391,71.547Z" transform="translate(285.78 251.77)" fill="#8cc63f"/>
        </g>
      </g>
      <g id="piece" transform="translate(0 335.642)">
        <path id="Ellipse_29" data-name="Ellipse 29" d="M74.146,20a54.146,54.146,0,1,0,54.146,54.146A54.207,54.207,0,0,0,74.146,20m0-20A74.146,74.146,0,1,1,0,74.146,74.145,74.145,0,0,1,74.146,0Z" transform="translate(0)" fill="#072f00"/>
        <circle id="Ellipse_30" data-name="Ellipse 30" cx="63.765" cy="63.765" r="63.765" transform="translate(10.38 10.38)" fill="#072f00"/>
        <path id="Tracé_214" data-name="Tracé 214" d="M270.564,521.63v-9.281c-4.691-.091-9.545-1.746-12.376-4.043l1.941-6.157a19.783,19.783,0,0,0,11.648,3.951c5.743,0,9.626-3.767,9.626-9,0-5.054-3.155-8.178-9.14-10.935-8.251-3.675-13.347-7.9-13.347-15.9,0-7.627,4.772-13.416,12.214-14.794v-9.281h5.015V455.1a19.681,19.681,0,0,1,10.516,3.216l-2.022,6.065a17.875,17.875,0,0,0-10.192-3.124c-6.228,0-8.574,4.227-8.574,7.9,0,4.778,2.993,7.167,10.03,10.475,8.331,3.859,12.538,8.638,12.538,16.816,0,7.259-4.449,14.059-12.781,15.621v9.557Z" transform="translate(-199.474 -409.857)" fill="#8cc63f"/>
      </g>
      <path id="Icon_awesome-map-marker-alt-3" data-name="Icon awesome-map-marker-alt" d="M47.6,138.623C7.452,80.418,0,74.445,0,53.054a53.054,53.054,0,1,1,106.108,0c0,21.391-7.452,27.364-47.6,85.569a6.635,6.635,0,0,1-10.9,0ZM53.054,75.16A22.106,22.106,0,1,0,30.948,53.054,22.106,22.106,0,0,0,53.054,75.16Z" transform="translate(260.737 0)" fill="#072f00"/>
    </g>
    <g id="eclats_verts_logo" transform="matrix(0.292, -0.956, 0.956, 0.292, 166.942, 165.555)">
      <path id="Tracé_195" data-name="Tracé 195" d="M0,58.53,4.656,0,28.378,6.208,5.986,60.3Z" transform="translate(0 0)" fill="#8cc63f"/>
      <path id="Tracé_196" data-name="Tracé 196" d="M0,67.91,9.286,0,33.008,7.25,6.58,69.944Z" transform="translate(60.621 4.335) rotate(16)" fill="#8cc63f"/>
      <path id="Tracé_197" data-name="Tracé 197" d="M0,26.6,39.463,0l9.312,22.392L2,32.812Z" transform="translate(57.421 70.723)" fill="#8cc63f"/>
    </g>
  </g>
</svg>
