<svg xmlns="http://www.w3.org/2000/svg" width="114.336" height="122.516" viewBox="0 0 114.336 122.516">
  <g id="illustration_tirelire" transform="translate(0.499)">
    <path id="Tracé_255" data-name="Tracé 255" d="M351.368,789.169c-2.143,3.594,23.6,6.814,46.966,6.34s44.2-2.746,46.341-6.34-22.972-4.742-46.341-4.268S353.511,785.574,351.368,789.169Z" transform="translate(-332.966 -673.039)" fill="#e6e6e6"/>
    <g id="Groupe_7" data-name="Groupe 7">
      <path id="Tracé_173" data-name="Tracé 173" d="M450.916,439.709A5.9,5.9,0,0,1,445,433.837v-4.244c-4.444.5-19.661.382-24.023-.319v4.393a5.916,5.916,0,1,1-11.833,0v-8.626a37.953,37.953,0,0,1,15.647-70.951c1.03-.081,2.065-.122,3.079-.122,3.57,0,19.678.552,23.72,1.714l9.216-9.144a.967.967,0,0,1,1.058-.211.954.954,0,0,1,.6.895v1.454l1.794-1.777a.965.965,0,0,1,1.057-.211.954.954,0,0,1,.6.895V363.83a37.886,37.886,0,0,1,11.819,20.93c.033.169.065.338.106.567.012.069.025.138.048.27.193,1.106.465,4.015.476,4.222a37.856,37.856,0,0,1-21.535,36.3v7.714A5.9,5.9,0,0,1,450.916,439.709Zm-5.451-10.644v4.772a5.451,5.451,0,1,0,10.9,0V425.83l.133-.063a37.779,37.779,0,0,0,15.472-13.53,37.186,37.186,0,0,0,5.954-22.446c-.008-.147-.251-2.835-.469-4.141-.007-.04-.024-.142-.042-.245-.026-.15-.065-.362-.106-.574a37.153,37.153,0,0,0-11.779-20.723l-.077-.069V347.583a.489.489,0,0,0-.312-.464.5.5,0,0,0-.554.11L462,349.791v-2.569a.489.489,0,0,0-.312-.464.5.5,0,0,0-.555.111l-9.413,9.34-.134-.042c-3.757-1.176-20.119-1.733-23.716-1.733-1,0-2.025.04-3.042.12a37.691,37.691,0,0,0-20.52,8.08,37.321,37.321,0,0,0,5.182,62.067l.12.066v8.9a5.451,5.451,0,1,0,10.9,0v-4.95l.276.052c3.92.738,20.426.854,24.415.331Z" transform="translate(-367.876 -322.571)"/>
      <path id="Tracé_172" data-name="Tracé 172" d="M20.651,48.342c-2.242-2.311-1.752-1.662-2.535-2.461q-1.043-1.064-1.994-2.22-.238-.289-.469-.582l-.264-.339c-.088-.121-.248-.339-.275-.377q-.271-.383-.532-.773a36.305,36.305,0,0,1-3.067-5.608q-.127-.291-.248-.585l-.087-.239c-.172-.474-.344-.947-.5-1.427q-.5-1.528-.864-3.1-.179-.777-.322-1.562-.074-.4-.138-.809c-.007-.045-.049-.336-.073-.5s-.052-.459-.057-.5q-.041-.408-.073-.818-.071-.921-.1-1.845-.043-1.642.059-3.284c.039-.615.094-1.228.161-1.841l.01-.095.014-.1c.05-.338.1-.676.162-1.013a37.045,37.045,0,0,1,.87-3.794q.253-.886.55-1.757.132-.387.273-.771c-.006.017.275-.7.279-.725,1.115-2.635,2.939-5.036,2.941-8.029A3.077,3.077,0,0,0,10.9,0C8.822.083-.955,13.82.076,27.166S8.412,47.732,15.026,53.39C18.548,56.429,22.893,50.653,20.651,48.342Z" transform="translate(33.128 35.463) rotate(16)" fill="#e6e6e6"/>
      <path id="Tracé_177" data-name="Tracé 177" d="M550.231,258.14a13.721,13.721,0,0,1-27.441,0c0-.435.021-.863.06-1.286a13.721,13.721,0,0,1,27.381,1.286Z" transform="translate(-470.085 -244.419)" fill="#8cc63f"/>
      <path id="Tracé_178" data-name="Tracé 178" d="M570.681,277.525a3.266,3.266,0,0,0-1.272-1.007,12.355,12.355,0,0,0-1.912-.628v-3.735a5.441,5.441,0,0,1,2.719,1.24l.758-1.616a5.014,5.014,0,0,0-1.479-.914,7.269,7.269,0,0,0-1.877-.481V268.49h-1.756V270.4a4.807,4.807,0,0,0-1.919.644,3.814,3.814,0,0,0-1.3,1.274,3.2,3.2,0,0,0-.463,1.7,2.9,2.9,0,0,0,.533,1.814,3.375,3.375,0,0,0,1.325,1.051,12.255,12.255,0,0,0,1.944.644V281.1a5.811,5.811,0,0,1-3.235-1.291l-.758,1.619a5.716,5.716,0,0,0,1.73.981,7.943,7.943,0,0,0,2.142.447v1.877h1.756v-1.912a4.544,4.544,0,0,0,2.607-1.2,3.161,3.161,0,0,0,.972-2.349A2.8,2.8,0,0,0,570.681,277.525Zm-4.7-2.03a3.371,3.371,0,0,1-1.17-.628,1.238,1.238,0,0,1-.414-.972,1.564,1.564,0,0,1,.423-1.119,2.14,2.14,0,0,1,1.16-.6Zm2.616,4.949a1.99,1.99,0,0,1-1.1.574v-3.079a3.08,3.08,0,0,1,1.1.551,1.083,1.083,0,0,1,.379.86,1.582,1.582,0,0,1-.379,1.093Z" transform="translate(-500.169 -262.892)" fill="#fff"/>
      <path id="Tracé_181" data-name="Tracé 181" d="M563.677,391.975a81.153,81.153,0,0,0-13.109.526c-2.018.079-3.254.269-3.254.99,0,.6,1.423,1.022,3.455.942,6.118.331,9.086.186,15.03.237s6.13-1.466,6.13-1.466l-1.415-.42" transform="translate(-493.195 -357.844)" fill="#ccc"/>
      <path id="Tracé_182" data-name="Tracé 182" d="M548.159,393.033c-.514,0-12.582-.019-12.582-1.686s12.069-1.686,12.582-1.686,12.583.019,12.583,1.686S548.672,393.033,548.159,393.033Zm-12.111-1.686c.33.505,4.766,1.221,12.111,1.221s11.78-.716,12.111-1.221c-.33-.505-4.767-1.221-12.111-1.221s-11.781.716-12.111,1.221Z" transform="translate(-481.897 -355.884)"/>
      <path id="Tracé_192" data-name="Tracé 192" d="M535.844,373.551l-.984-.177c.012-.067.3-1.67.785-3.3.737-2.488,1.47-3.6,2.378-3.6h.006c.849,0,1.342.994,1.639,1.738a27.251,27.251,0,0,1,1.254,5.167l-.986.166a26.364,26.364,0,0,0-1.2-4.961c-.423-1.059-.713-1.109-.716-1.109h0c-.006,0-.588.076-1.418,2.875C536.138,371.929,535.847,373.535,535.844,373.551Z" transform="translate(-437.959 -314.704)"/>
      <path id="Rectangle_20" data-name="Rectangle 20" d="M39.379,20.169h4.359a1.03,1.03,0,0,0,1.029-1.029V1.441A1.03,1.03,0,0,0,43.738.412l-2.8.815S42.715,11.835,40.1,18.4M41.034.859,43.738,0a1.441,1.441,0,0,1,1.441,1.441v17.7a1.441,1.441,0,0,1-1.441,1.441H39.379c-.652,0,1.667-1.129,2.1-9.689A69.946,69.946,0,0,0,41.034.859Z" transform="translate(68.659 61.848)"/>
      <path id="Tracé_193" data-name="Tracé 193" d="M602.013,430.109l-2.187.094c2.121-5.995,1.736-11.982.756-18.753l3.067-.63C604.7,418.1,604.308,423.625,602.013,430.109Z" transform="translate(-492.283 -348.146)" fill="#fff"/>
      <path id="Tracé_194" data-name="Tracé 194" d="M97.214,365.314a33.393,33.393,0,0,1-5.474-.9,21,21,0,0,1-5.108-1.92H86.58a12.99,12.99,0,0,1-7.082-2.575c-4.318-3.156-6.876-8.812-2.855-14.33l.808.589c-3.862,5.3-.993,10.28,2.637,12.934a12.74,12.74,0,0,0,4.763,2.17A8.032,8.032,0,0,1,83.54,359.9a6.28,6.28,0,0,1-.985-5.445,7.126,7.126,0,0,1,1.877-3.506,5.329,5.329,0,0,1,2.914-1.449,6.406,6.406,0,0,1,6.3,2.954,5.506,5.506,0,0,1,.788,3.279,7.472,7.472,0,0,1-1.548,3.856,6.863,6.863,0,0,1-2.822,2.269,7.457,7.457,0,0,1-1.483.466,30.872,30.872,0,0,0,8.7,1.988Zm-9-14.876a4.677,4.677,0,0,0-.713.054c-1.975.3-3.386,1.8-3.973,4.2a5.256,5.256,0,0,0,.818,4.614,8.375,8.375,0,0,0,2.572,2.194,6.2,6.2,0,0,0,5.161-2.5c1.541-2.1,1.794-4.241.712-6.024A5.5,5.5,0,0,0,88.212,350.438Z" transform="translate(-75.131 -296.328)"/>
      <rect id="Rectangle_67" data-name="Rectangle 67" width="10.766" height="14.164" rx="5.383" transform="translate(41.781 102.326)" fill="#fff"/>
      <rect id="Rectangle_68" data-name="Rectangle 68" width="10.766" height="14.164" rx="5.383" transform="translate(77.668 102.517)" fill="#fff"/>
    </g>
  </g>
</svg>
