<svg xmlns="http://www.w3.org/2000/svg" xmlns:xlink="http://www.w3.org/1999/xlink" width="200" zoomAndPan="magnify" viewBox="0 0 150 149.999998" height="200" preserveAspectRatio="xMidYMid meet" version="1.0"><defs><clipPath id="8e3cadae49"><path d="M 1.453125 1.242188 L 148.453125 1.242188 L 148.453125 148.242188 L 1.453125 148.242188 Z M 1.453125 1.242188 " clip-rule="nonzero"/></clipPath></defs><path fill="#ffffff" d="M 122.941406 26.597656 C 121.714844 25.359375 119.703125 25.359375 118.464844 26.597656 L 74.875 70.1875 L 31.289062 26.597656 C 30.046875 25.359375 28.039062 25.359375 26.800781 26.597656 C 25.570312 27.824219 25.570312 29.835938 26.800781 31.074219 L 70.402344 74.664062 L 26.800781 118.25 C 25.570312 119.492188 25.570312 121.5 26.800781 122.726562 C 27.425781 123.355469 28.195312 123.667969 28.964844 123.667969 C 29.75 123.667969 30.519531 123.355469 31.132812 122.726562 L 74.875 79.152344 L 118.464844 122.726562 C 119.089844 123.355469 119.863281 123.667969 120.632812 123.667969 C 121.414062 123.667969 122.183594 123.355469 122.796875 122.726562 C 124.039062 121.5 124.039062 119.492188 122.796875 118.25 L 79.367188 74.664062 L 122.953125 31.074219 C 124.179688 29.835938 124.179688 27.824219 122.953125 26.597656 L 122.941406 26.597656 " fill-opacity="1" fill-rule="nonzero"/><g clip-path="url(#8e3cadae49)"><path fill="#ffffff" d="M 141.957031 136.964844 C 141.957031 139.589844 139.800781 141.742188 137.167969 141.742188 L 12.585938 141.742188 C 9.949219 141.742188 7.796875 139.589844 7.796875 136.964844 L 7.796875 12.375 C 7.796875 9.738281 9.949219 7.582031 12.585938 7.582031 L 137.324219 7.582031 C 139.960938 7.582031 142.113281 9.738281 142.113281 12.375 L 142.113281 136.964844 Z M 137.167969 1.242188 L 12.585938 1.242188 C 6.558594 1.242188 1.453125 6.1875 1.453125 12.375 L 1.453125 137.109375 C 1.453125 143.136719 6.402344 148.242188 12.585938 148.242188 L 137.324219 148.242188 C 143.351562 148.242188 148.453125 143.296875 148.453125 137.109375 L 148.453125 12.375 C 148.296875 6.1875 143.351562 1.242188 137.167969 1.242188 " fill-opacity="1" fill-rule="nonzero"/></g></svg>